<svg id="BACKGROUND" xmlns="http://www.w3.org/2000/svg" viewBox="0 0 1721.66 1782.61"><defs><style>.cls-1{opacity:0.3;}.cls-2{opacity:0.15;}.cls-3{fill:#808386;}.cls-4{fill:#bdbec0;}</style></defs><title>conexões</title><g class="cls-1"><g class="cls-2"><polygon class="cls-3" points="227.26 1675.07 471.87 1700.91 482.07 1526.87 224.88 1639.98 224.82 1639.14 482.95 1525.6 472.62 1701.81 227.32 1675.87 227.26 1675.07"/></g><g class="cls-2"><path class="cls-3" d="M515.36,1487.26l-33.25,38.89L457.55,1643.1l.77.23L516,1487.68Zm-32.48,39.15,31.62-36.91-55,148.46Z"/></g><g class="cls-2"><path class="cls-3" d="M448.15,1446.94l.88.45,66.9,40.77,19-87.62-.76.4-85.07,45.75Zm67.24,40L450,1447.06l83.69-45Z"/></g><g class="cls-2"><path class="cls-3" d="M571.21,1222.55l-.23,1.07-37.15,178,.44,0,142,14.49.44.78.15-.72.39,0-.3-.52.07-.31h-.25ZM534.8,1400.94l36.76-176.1,104.26,190.49Z"/></g><g class="cls-2"><path class="cls-3" d="M570.12,1224.34l168.27-30.2-.45-.4,45.91-171.23-1,1Zm167-30.79-164.52,29.51,209.7-198Z"/></g><g class="cls-2"><path class="cls-3" d="M708.7,1003.58l-.25.77,84,31.14.05.06h.12l1.37.51-10.64-12.63-.13,0Zm82.67,30.66-74.72-27.71,66.21,17.61Z"/></g><g class="cls-2"><path class="cls-3" d="M707.13,1004.14l126.61,20.3-.71-.63L1001.7,882.15l-.41-.69Zm125.16,19.24-122.24-19.59L999.17,883.22Z"/></g><g class="cls-2"><path class="cls-3" d="M938.71,845.66l.35,1,35.47,99.49L1002,881.66l-.31-.17ZM974.59,944l-34.4-96.52L1000.93,882Z"/></g><g class="cls-2"><path class="cls-3" d="M1107.42,577.33h0L974.18,944.92l.75.3,31.41-75.53h-.06l101.91-292.1ZM980.85,928.88l104.67-288.76-80.24,230Z"/></g><g class="cls-2"><path class="cls-3" d="M1107.47,577.7l82.69,121.88.11-1,.09-.14,0-.12,4.57-40.72-.15-.14-86.66-80.32Zm82.14,119.62-79.5-117.15L1194,658Z"/></g><g class="cls-2"><path class="cls-3" d="M1234.84,334.62l-40.93,324.29,41.26-41.24v-.17l.46-282.84Zm-39.84,322,39.83-315.51-.46,276.16Z"/></g><g class="cls-2"><path class="cls-3" d="M1235.44,334.31l-.49.62,156.92,170.84.89-.06-.39-.58L1301.8,370.76l-.09,0Zm153.29,166.86-151.53-165,64,35.18Z"/></g><g class="cls-2"><path class="cls-3" d="M1301,370.94l.24.36,94.62,137,.29-.67,106.44-253.42Zm94.68,135.72L1302.11,371.2l198.76-115.06Z"/></g><g class="cls-2"><polygon class="cls-3" points="1563.96 152.77 1519.03 75.53 1502.13 254.87 1571.87 269.11 1571.92 269.94 1501.62 255.58 1501.27 255.51 1518.26 75.12 1519.66 75.03 1563.84 150.96 1563.96 152.77"/></g><g class="cls-2"><polygon class="cls-3" points="1561.48 116.3 1519.19 75.23 1521.07 127.63 1563.45 145.19 1563.51 146.09 1520.52 128.27 1520.28 128.18 1518.38 75.11 1520.11 75 1561.4 115.09 1561.48 116.3"/></g><g class="cls-2"><polygon class="cls-3" points="1561.49 116.38 1561.54 117.19 1520.77 128.3 1520.13 128.46 1531.87 74.2 1532.71 74.14 1521.2 127.34 1561.49 116.38"/></g><g class="cls-2"><path class="cls-3" d="M272.93,1284.22l-40.29,297.66.56-.14,250.06-55.25-.45-.52Zm-39.34,296.61,39.9-294.73L481.76,1526Z"/></g><g class="cls-2"><polygon class="cls-3" points="224.82 1639.14 478.61 1527.52 233.34 1581.71 221.84 1595.29 221.76 1594.13 232.81 1581.09 232.9 1580.98 482.42 1525.85 482.67 1526.61 224.88 1639.98 224.82 1639.14"/></g><g class="cls-2"><path class="cls-3" d="M272.05,1284.71l244.5,204.09-.51-1.4-71.69-196.22h-.28Zm242.72,201.56-240.4-200.66,169.4,6.36Z"/></g><g class="cls-2"><path class="cls-3" d="M272.9,1285.43l209.61,241.42,33.19-38.75.84.7-.42-1.19.11-.13-.23-.18-.2-.55-.19.23L273.47,1284.86Zm209.61,240.2L276.8,1288.69l238.29,198.89Z"/></g><g class="cls-2"><path class="cls-3" d="M443.51,1291.54l90.48,110,.19-.14h.51L607.84,1129Zm90.61,108.9L444.61,1291.6l161.68-159.94Z"/></g><g class="cls-2"><path class="cls-3" d="M443.68,1291.71,515.76,1489l.29-1.36,18.67-86.32-.1-.25-90.25-109.72Zm71.88,194.38-70.32-192.43,88.64,107.74Z"/></g><g class="cls-2"><path class="cls-3" d="M606.78,1130l-.1.24L571,1223.57l.41.16.24.26,112.1-99.55Zm-34.44,92.36,35-91.6,74.1-5.3Z"/></g><g class="cls-2"><path class="cls-3" d="M606.68,1130.19,571,1223.57l.28.1-.3-.05-37.07,177.6.78.17,72.76-271Zm-34.9,93.63,32.86-86-67,249.64Z"/></g><g class="cls-2"><path class="cls-3" d="M707.27,1085.7l0,0-25,39,.63.5L783.43,1024l0-.06-.62-.49ZM685,1122l22.9-35.72,69.26-57Z"/></g><g class="cls-2"><path class="cls-3" d="M571.11,1223.42l.54.57,111.21-98.76L783.43,1024l0-.07-.65-.46Zm193.95-182.06-82.75,83.28-91.49,81.27Z"/></g><g class="cls-2"><path class="cls-3" d="M746.32,933.61l-37.87,69.77-.25-.17v.75l-1,82,.8.1,39.1-152.16ZM709,1004.09l36.49-67.23L708,1082.62Z"/></g><g class="cls-2"><path class="cls-3" d="M708.2,1003.21v.75l-1,82.87.66-.55L784,1023.59l-.76-.2-74.42-19.79ZM708,1085.1l1-80.61L782.23,1024Z"/></g><g class="cls-2"><path class="cls-3" d="M745.54,934.45l256.13-52.28.38-.27-.31-.34-104.91-111-.29.31Zm255.11-52.86L747.82,933.16l149-161.41Z"/></g><g class="cls-2"><path class="cls-3" d="M746.41,933.44l-38.72,71.34,1.06-.43L1001.6,882.2l-.06-.12-.19-.64Zm-36.91,69.72,37.44-69,250.52-51.09Z"/></g><g class="cls-2"><path class="cls-3" d="M968.57,682.07l-72.2,89,.1.23,78,174.49.52-.6v-.16Zm-71.26,89.14,70.5-86.94,6.29,258.81Z"/></g><g class="cls-2"><path class="cls-3" d="M896.47,771.32l78,174.49.49-.59,27-63.47-.18-.19L897.13,770.88Zm78.08,172.74L898.17,773.15,1001,881.93Z"/></g><g class="cls-2"><path class="cls-3" d="M941.83,643.45l26.26,40.3.35-.26L1108.18,577.7l.12-.86-.64.25Zm26.47,39.14L943,643.83,1105.18,579Z"/></g><g class="cls-2"><path class="cls-3" d="M967.79,683v.21l6.37,261.89.77.13,133.72-368.87Zm7.11,259.94-6.3-259.55L1107,578.61Z"/></g><g class="cls-2"><path class="cls-3" d="M942.36,643.24l0,.8,253.49,14.23-77.44-51.76-.18,0ZM1193,657.3l-247.5-13.89,172.78-36Z"/></g><g class="cls-2"><path class="cls-3" d="M942.27,643.27l.14.77,253.13,14.21-.81-.76L1107.88,577l-.22.09Zm251.09,14.05-249.09-14,163.44-65.41Z"/></g><g class="cls-2"><path class="cls-3" d="M1235.06,334.18l-.16.29-70.6,121.9L1118,606.82l.75.28,117.06-272.67ZM1121,599.87,1165,456.69l67.23-116.06Z"/></g><g class="cls-2"><path class="cls-3" d="M1234.91,334.13l-.07.46-117,272.5.28.19,76.63,51.2.07-.64,40.78-323,.15-.35Zm-116,272.66,115.61-269.31-40.34,319.61Z"/></g><g class="cls-2"><path class="cls-3" d="M1291.3,163.78,1163.77,457.6l1.09-.68,136.82-85.48.26-.07,0-.32-9.85-207.12ZM1165.53,455.55l125.82-289.86,9.76,205.16Z"/></g><g class="cls-2"><path class="cls-3" d="M1235.09,334.12l-.19.35-70.6,121.9.56.55,136.82-85.48.89-.24-.86-.48ZM1165.8,455.37l69.6-120.16,65.33,35.88Z"/></g><g class="cls-2"><path class="cls-3" d="M1226.1,169.65l-.08.79,275.65,85.16,1.39-.25-1.19-.53-210.14-91.29h-.1Zm268.79,83-266.7-82.39,63.42-5.91Z"/></g><g class="cls-2"><path class="cls-3" d="M1291.24,163.31l9.91,208.44.58-.33,200.11-115.85,1.24-.22-1.21-.53Zm10.65,207.08-9.79-205.82,208.7,90.67Z"/></g><g class="cls-2"><polygon class="cls-3" points="1226.1 170.46 1226.02 169.68 1513.86 75.42 1517.13 75.2 1228 169.87 1446.06 195.7 1517.73 75.16 1518.72 75.09 1446.63 196.33 1446.48 196.56 1226.1 170.46"/></g><g class="cls-2"><polygon class="cls-3" points="1226.02 170.44 1224.82 170.07 1513.86 75.42 1517.13 75.2 1227.46 170.05 1501.34 254.66 1518.26 75.12 1519.09 75.07 1502.09 255.22 1502.04 255.72 1226.02 170.44"/></g><g class="cls-2"><polygon class="cls-3" points="1437.67 80.6 1438.48 80.55 1446.63 195.27 1520.19 127.81 1496.64 76.59 1497.49 76.53 1521.04 127.74 1521.09 127.88 1521.04 128.13 1446.56 196.42 1445.93 196.99 1437.67 80.6"/></g><g class="cls-2"><path class="cls-3" d="M1445.93,195.93l71.8-120.77,1.45-.1,1.89,52.83,0,.24-74.48,68.29Zm74.34-68.19-1.88-52.11L1448,194Z"/></g><g class="cls-2"><polygon class="cls-3" points="1496.64 76.59 1497.49 76.53 1520.54 126.64 1531.87 74.2 1532.71 74.14 1521.06 127.99 1520.81 129.17 1496.64 76.59"/></g><g class="cls-2"><polygon class="cls-3" points="203.6 1326.87 203.54 1325.97 272.87 1284.9 309.73 1167.45 201.01 1288.74 200.93 1287.63 310.37 1165.53 311.05 1165.91 273.59 1285.28 273.25 1285.17 273.42 1285.51 203.6 1326.87"/></g><g class="cls-2"><polygon class="cls-3" points="218.99 1553.25 232.88 1580.04 272.7 1285.94 203.6 1326.87 203.54 1325.97 273.72 1284.4 233.34 1582.67 219.12 1555.26 218.99 1553.25"/></g><g class="cls-2"><path class="cls-3" d="M310.31,1166l56.35,108.51.19,0,77,17.41.68.65,0-.51.9.21-.95-.9v-.14l-.19,0L311,1165.5Zm56.9,107.81-55.08-106.07L442.7,1290.85Z"/></g><g class="cls-2"><path class="cls-3" d="M310.48,1165.06l-.2.62-37.62,119.87L445.12,1292Zm-36.73,119.72,37.11-118.25L443,1291.13Z"/></g><g class="cls-2"><path class="cls-3" d="M366.65,1273.86l.49.63,240.12-143.82,1.46-.47-1.58-.27-83.08-16.5-.15.15ZM606,1130.52,369.42,1272.19l154.91-157.88Z"/></g><g class="cls-2"><path class="cls-3" d="M365.87,1274.31,444.19,1292l.16-.16,163-161.25-.4-.67Zm78.06,16.82L368,1274l236.4-141.59Z"/></g><g class="cls-2"><path class="cls-3" d="M523.28,1114.2l160,11.17-59.86-110.61Zm158.61,10.27-156.78-11,98.13-97.43Z"/></g><g class="cls-2"><path class="cls-3" d="M524.23,1113.46l-.11.8,83,16.47,75.66-5.41.92-.72-1-.07Zm82.86,16.47-76.57-15.22,146.38,10.22Z"/></g><g class="cls-2"><path class="cls-3" d="M619.46,822.25l3.48,193.37.14.11,85.33,71.45-.45-1.35L620.24,822.12Zm4.27,193-3.42-190.36,86.43,259.87Z"/></g><g class="cls-2"><path class="cls-3" d="M623,1015.61l59.59,110.11,25.27-39.41.59-.15-.59-.5-84.25-70.54Zm59.64,108.53-57.93-107.06,82.36,69Z"/></g><g class="cls-2"><path class="cls-3" d="M619.29,822.27l.3.27L747.12,934.72l0-.94L736.69,690.41Zm127,110.6L620.43,822.21,736,692.42Z"/></g><g class="cls-2"><path class="cls-3" d="M619,821l88.62,266.43.34-1.33,39.1-152.16v-.19l-.13-.22Zm88.51,263.58-86.81-261L746.23,933.94Z"/></g><g class="cls-2"><path class="cls-3" d="M735.25,691.32l.9.45,161.05,80V771L849.3,656.47l-.35.11Zm160.8,79L737.41,691.51l111.43-34.06Z"/></g><g class="cls-2"><path class="cls-3" d="M735.9,690.75l0,.68,10.39,243.36L897.49,771l-.48-.24ZM747,932.81,736.76,692.08l159.41,79.2Z"/></g><g class="cls-2"><path class="cls-3" d="M889.09,524.37,848.55,657.26l.43.09,120,26.4-.39-.76ZM849.58,656.66l39.71-130.12,78.16,156.05Z"/></g><g class="cls-2"><path class="cls-3" d="M848.39,656.4l48.34,115.53,72.2-89-.64-.14Zm48.56,114L849.73,657.52l117.74,25.9Z"/></g><g class="cls-2"><path class="cls-3" d="M888.69,525.32l.14.3,53.7,119.23.29-1.11,51-193.63Zm53.65,117.12L889.69,525.59l102.76-73.52Z"/></g><g class="cls-2"><path class="cls-3" d="M888.83,525.62l53.23,118.19,25.79,39.58.7-.4-79-157.71ZM964.66,677l-21.89-33.58-45.19-100.3Z"/></g><g class="cls-2"><path class="cls-3" d="M992.55,451l.25.33,125.39,156,.49-.08.06-.24L1212,292.64ZM1118.2,606.09,993.7,451.17l216.82-156.5Z"/></g><g class="cls-2"><path class="cls-3" d="M992.94,450.21l-.21.78L941.87,644.17l.64-.13,175.94-36.71-.08-.4.3-.24ZM943,643.12,993.31,452l124.32,154.72Z"/></g><g class="cls-2"><path class="cls-3" d="M1239.83,232.5l-29,61-46.81,163.63.88-.19.09-.22,75.55-223.9ZM1169.7,440.31l41.92-146.55,26-54.76Z"/></g><g class="cls-2"><path class="cls-3" d="M1210.84,293.54,1118,606.83l.76.24,46.49-151h0l46.41-162.28Zm-70,239.14,47-158.47-23.62,82.58Z"/></g><g class="cls-2"><polygon class="cls-3" points="1233.99 94.44 1234.78 94.39 1240.55 231.53 1291.16 163.95 1239.29 94.08 1240.25 94.02 1291.94 163.63 1292.28 163.81 1239.84 233.82 1233.99 94.44"/></g><g class="cls-2"><path class="cls-3" d="M1291.47,163.38l-.17.39-51.48,68.78-75.55,223.9.74.29,127-292.57.26-.33Zm-50.92,69.49L1289.91,167,1168.08,447.63Z"/></g><g class="cls-2"><polygon class="cls-3" points="1232.87 94.52 1233.68 94.47 1226.64 168.94 1302.21 89.81 1303.39 89.73 1226.42 170.33 1225.64 171.17 1232.87 94.52"/></g><g class="cls-2"><polygon class="cls-3" points="1232.87 94.52 1233.68 94.47 1226.59 169.61 1290.91 163.61 1239.29 94.08 1240.25 94.02 1292.41 164.28 1225.69 170.5 1232.87 94.52"/></g><g class="cls-2"><polygon class="cls-3" points="1445.92 196.31 1388.31 83.95 1389.19 83.9 1446.03 194.76 1459.68 79.1 1460.5 79.05 1446.67 196.17 1446.26 196.13 1445.92 196.31"/></g><g class="cls-2"><polygon class="cls-3" points="1226.1 170.46 1225.3 170.36 1302.21 89.81 1303.39 89.73 1227 169.75 1445.58 195.65 1388.31 83.95 1389.19 83.9 1446.64 195.94 1446.7 196.04 1446.65 196.58 1226.1 170.46"/></g><g class="cls-2"><polygon class="cls-3" points="1438.48 80.55 1446.38 191.85 1459.68 79.1 1460.5 79.05 1446.67 196.17 1445.88 196.15 1437.67 80.6 1438.48 80.55"/></g><g class="cls-2"><polygon class="cls-3" points="197.98 1244.26 243.43 1164.64 195.89 1213.43 195.81 1212.36 245.06 1161.81 245.7 1162.3 198.08 1245.71 197.98 1244.26"/></g><g class="cls-2"><polygon class="cls-3" points="191.05 1142.33 190.99 1141.45 245.43 1161.7 306.72 1165.18 190.53 1134.55 190.47 1133.7 310.69 1165.39 310.7 1165.4 310.85 1165.44 310.65 1166.2 245.32 1162.5 191.05 1142.33"/></g><g class="cls-2"><polygon class="cls-3" points="200.93 1287.63 309.81 1166.15 245.57 1162.51 198.08 1245.71 197.98 1244.26 245 1161.9 245.12 1161.69 311.53 1165.44 201.01 1288.74 200.93 1287.63"/></g><g class="cls-2"><polygon class="cls-3" points="192.35 1161.42 366.5 1273.38 350.87 1008.72 187.16 1084.99 187.1 1084.13 351.06 1007.74 351.6 1007.49 367.4 1274.9 192.42 1162.41 192.35 1161.42"/></g><g class="cls-2"><polygon class="cls-3" points="366.68 1274.52 366.63 1274.41 192.42 1162.41 192.35 1161.42 365.88 1272.97 310.4 1166.14 190.53 1134.55 190.47 1133.69 310.77 1165.4 310.95 1165.45 367.99 1275.29 366.81 1274.53 366.68 1274.52"/></g><g class="cls-2"><path class="cls-3" d="M350.51,1008.13l.51.31,173,105.77.26-.35.34-.08L483.46,910.32ZM523.62,1113,352,1008.07l131-96.35Z"/></g><g class="cls-2"><path class="cls-3" d="M350.78,1007.36l.05.77,15.76,266.93.63-.64,157.62-160.64-.43-.26Zm16.51,265.85-15.61-264.36,171.88,105.09Z"/></g><g class="cls-2"><path class="cls-3" d="M402.71,832.73l80.2,78.58L623.2,1015.84l1.24-.09-.86-.65-.14.17.13-.18-220.33-183ZM611.31,1006,483.44,910.7,410.26,839Z"/></g><g class="cls-2"><path class="cls-3" d="M482.59,910.07,524,1114.68l.54-.53,99-98.33.93-.07-.86-.65Zm41.85,203L483.8,912l138.92,103.49Z"/></g><g class="cls-2"><path class="cls-3" d="M573.66,566.29,402.22,832.88l218.12-10.26ZM403.74,832,573.23,568.44l46.15,253.42Z"/></g><g class="cls-2"><path class="cls-3" d="M401.92,832.08l.8.67,221,183.55-3.49-194.07h-.4l0-.4Zm221,182.47L404,832.79l215.42-10.12Z"/></g><g class="cls-2"><path class="cls-3" d="M572.55,567.19l.65.5,162.89,124,.58-.54L646.39,547.3l-.29.08ZM734.81,689.75,574.34,567.54,646,548.23Z"/></g><g class="cls-2"><path class="cls-3" d="M572.87,566.42l46.74,256.71L736.78,691.52l-.09-.34-.12-.09Zm47.24,254.94L574,568.32,735.74,691.47Z"/></g><g class="cls-2"><path class="cls-3" d="M645.09,547.63,848.88,657.32l.5-.6L711,531.59l-.21,0ZM846.34,655l-199-107.13,63.47-15.44Z"/></g><g class="cls-2"><path class="cls-3" d="M645.06,546.69l91.1,145.2.29-.09L850.1,657.07l-.76-.42-.12-.15-.12,0Zm91.45,144.25L647.35,548.85,848,656.86Z"/></g><g class="cls-2"><path class="cls-3" d="M886.43,274.69l-.72,1.05L710.11,532.46l179.48-6.61v-.39ZM711.68,531.6l174-254.36,3.11,247.83Z"/></g><g class="cls-2"><path class="cls-3" d="M709.89,531.66l139.38,126,.18-.61,40-131.23h.1v-.34l.13-.47Zm139,124.57L711.9,532.4l176.73-6.51Z"/></g><g class="cls-2"><path class="cls-3" d="M831.11,263.12l.79.93L992.78,451.31l.17.28.84-.34-.36-.42L886.29,275.61ZM990.16,447,833.31,264.45l52.47,11.88Z"/></g><g class="cls-2"><path class="cls-3" d="M885.62,274.51l0,1.46,3.15,250.26,104.56-74.81-.19-.35.3-.19Zm4,250.17-3.1-247.25L992.58,451Z"/></g><g class="cls-2"><path class="cls-3" d="M832.1,263.4l.07.79,379,29.86.06-.49.12-.28-.12.27,0-.29L951.88,231.77l-.09,0Zm374,29.44L834.61,263.56l117.28-31Z"/></g><g class="cls-2"><path class="cls-3" d="M831.26,263.3l.64.75L993.05,451.63l.3-.21,218.7-157.86-.78-.31ZM993.18,450.54l-160-186.28,377,29.71Z"/></g><g class="cls-2"><polygon class="cls-3" points="951.89 232.59 951.13 232.59 1035.03 107.97 1036.06 107.9 952.64 231.78 1239.5 232.27 1162.51 99.3 1163.4 99.24 1240.54 232.47 1240.9 233.08 951.89 232.59"/></g><g class="cls-2"><path class="cls-3" d="M951.88,231.78l-.09.8,259.67,61.54,29.4-61.89-.69.05ZM1211,293.19l-255.66-60.6,284.2.49Z"/></g><g class="cls-2"><polygon class="cls-3" points="1162.51 99.3 1163.4 99.24 1239.72 231.06 1233.99 94.44 1234.78 94.39 1240.61 232.66 1239.84 232.88 1162.51 99.3"/></g><g class="cls-2"><polygon class="cls-3" points="191.86 1154.21 243.71 1161.47 189.86 1124.79 189.79 1123.77 245.57 1161.76 245.69 1161.85 245.91 1162.59 191.92 1155.03 191.86 1154.21"/></g><g class="cls-2"><polygon class="cls-3" points="195.81 1212.36 244.5 1162.39 191.92 1155.03 191.86 1154.2 246.19 1161.81 195.89 1213.43 195.81 1212.36"/></g><g class="cls-2"><polygon class="cls-3" points="190.99 1141.45 242.39 1160.56 189.86 1124.79 189.79 1123.77 245.57 1161.76 245.2 1162.47 191.05 1142.34 190.99 1141.45"/></g><g class="cls-2"><path class="cls-3" d="M192.24,1153.9l.57.56,159.65-146.94-.59.09,29.3-70.49-.67-.41Zm158.65-146L197.52,1149l182-209.92Z"/></g><g class="cls-2"><polygon class="cls-3" points="191.8 1153.31 192.48 1153.68 349.07 1009.55 187.16 1084.99 187.1 1084.12 351.06 1007.74 352.46 1007.52 192.81 1154.46 192.6 1154.66 191.87 1154.26 191.8 1153.31"/></g><g class="cls-2"><path class="cls-3" d="M382.89,930l-2.73,7.57L483.3,911.41l-.13-.79h-.11Zm-1.46,6.42,2.06-5.71,86-16.62Z"/></g><g class="cls-2"><path class="cls-3" d="M380.51,936.63l-.08.19-30.12,72.47,133.12-97.95-.24-.52,0-.2v.2l-.09-.19Zm-28.35,70.29,28.93-69.61L481.3,911.92Z"/></g><g class="cls-2"><path class="cls-3" d="M391.68,776.86l-8.89,153.45.8.1,19.81-98,0-.08-10.9-55.55Zm-7.76,147.83,8.37-144.6,10.28,52.35Z"/></g><g class="cls-2"><path class="cls-3" d="M402.74,831.63l-.15.73-19.91,98.48.59-.11L484,911.27Zm-19,98.2,19.52-96.58,79.14,77.52Z"/></g><g class="cls-2"><path class="cls-3" d="M391.78,776.63l.58.54,253-254.88-.49-.63-71.91,45.57.05.08ZM642.24,524.25l-242.12,244L573.73,567.67Z"/></g><g class="cls-2"><path class="cls-3" d="M391.65,776.78l0,.19,11.1,56.53.54-.84,170.44-265,.15-.18-.11-.27-.31-.61-.38.58Zm11.54,54.6L392.51,777,570,571.93Z"/></g><g class="cls-2"><path class="cls-3" d="M635.75,456.31l10.06,91.79.85.16,0-.54-.37,0,.35,0L645.44,522l-8.89-65.77Zm9.49,78.95-5.17-47.05,4.58,33.84Z"/></g><g class="cls-2"><path class="cls-3" d="M573.23,567l.32.73,72.75-19.59v-.4h.31l-1.19-26.46Zm72.55-19.56L575.9,566.29l68.77-43.58Z"/></g><g class="cls-2"><path class="cls-3" d="M635.19,455.87l75.55,76.57.32,0,.1-.1,82.9-77.54h-1Zm75.72,75.6-73.8-74.81L792,455.61Z"/></g><g class="cls-2"><path class="cls-3" d="M635.62,455.16l10.24,93.11.44-.11L711,532.43l-.06-.43.25-.25Zm10.93,92.11-9.87-89.9,73.42,74.44Z"/></g><g class="cls-2"><path class="cls-3" d="M729.23,288.88,793,456.18,886.44,276l0-.47-.46,0Zm63.86,165.33L730.36,289.6l155-13.17Z"/></g><g class="cls-2"><path class="cls-3" d="M886.51,274.6l-.8,1.14L710.56,531.8l.6.52,82.2-76.88,0-.06,93.05-179.3ZM713.3,529.23,882.65,281.64,792.71,455Z"/></g><g class="cls-2"><path class="cls-3" d="M729.7,288.85l.11.79,217.37-9,.05-.8-115.05-16.5-.08,0Zm213.07-8.8-209,8.62,98.48-24.48Z"/></g><g class="cls-2"><path class="cls-3" d="M729.7,288.85l.13.79,156.25-13.27,0-.8-54-12.17Zm153.71-13.07L734.8,288.41l97.41-24.21Z"/></g><g class="cls-2"><polygon class="cls-3" points="946.76 280.29 939.26 114.48 940.07 114.42 947.32 274.64 951.48 232.22 941.24 114.34 942.04 114.29 952.29 232.22 947.57 280.31 946.76 280.29"/></g><g class="cls-2"><path class="cls-3" d="M832.1,263.4l0,.79,115.37,16.53,4.82-49.08-.55.16Zm114.71,16.41L834.23,263.66l117.2-30.94Z"/></g><g class="cls-2"><polygon class="cls-3" points="941.24 114.34 942.04 114.29 952.19 231.01 1035.03 107.97 1036.06 107.9 951.58 233.35 941.24 114.34"/></g><g class="cls-2"><polygon class="cls-3" points="191.71 1151.94 192.39 1153.13 267.57 864.03 172.72 872.63 172.67 871.83 268.06 863.18 268.63 863.13 192.94 1154.23 192.79 1155.41 191.83 1153.76 191.71 1151.94"/></g><g class="cls-2"><path class="cls-3" d="M267.48,863.66l.39.26,112.9,73.52.56-.29-.17-.36-62.4-129.2Zm112.33,72.19L268.71,863.5,318.55,809Z"/></g><g class="cls-2"><path class="cls-3" d="M267.85,862.94l-75.7,291.13.69.36L381.1,937.24l-.26-.33.17-.27ZM193.37,1152.6l75-288.38,111.84,72.84Z"/></g><g class="cls-2"><path class="cls-3" d="M393.46,678.75,318.19,808.29l.1.19,64.5,121.94v.27l.16,0,.59,1.12.05-1,.33,0-.31-.6L394.21,679ZM319.11,808.31l74.23-127.75L382.85,928.82Z"/></g><g class="cls-2"><path class="cls-3" d="M318.28,808.47,380.85,938l2.61-7.24.45.06-.35-.69L319,808.11Zm62.47,127.47L328.58,828l54.17,102.42Z"/></g><g class="cls-2"><path class="cls-3" d="M393.41,678.62v.32L391.66,778l.78-.93,55-109.42Zm-.9,96.52,1.69-95.86L446,668.76Z"/></g><g class="cls-2"><path class="cls-3" d="M393.41,678.93,382.79,930.32l.81,0,8.95-154.63-.05.06L394.21,679Zm-7.64,199.93,7.05-167.05-1.15,65.13Z"/></g><g class="cls-2"><path class="cls-3" d="M444.62,354v.87L446.35,669,645.69,522Zm2.53,313.4-1.71-311.66L644.39,522Z"/></g><g class="cls-2"><path class="cls-3" d="M446.43,667.94,391.72,776.71l.64.46,253-254.88-.52-.62ZM393.57,774.81l53.49-106.33,194-143.07Z"/></g><g class="cls-2"><path class="cls-3" d="M444.33,355l.51.26L636,456.64h.06l.31-.73,0,.06,0-.07-.12.2.11-.21L455,345.13ZM624.6,449.68,445.72,354.79l9.4-8.65Z"/></g><g class="cls-2"><path class="cls-3" d="M445.21,354.52l-.44.67L645.58,523l-9-66.76-.34.05.14-.35ZM644.5,521,448.24,357l187.53,99.48Z"/></g><g class="cls-2"><path class="cls-3" d="M454,345.71l.95.31L794.31,456l-1-1.1L624.16,263.17ZM791.76,454.36,456.14,345.55,624,264.16Z"/></g><g class="cls-2"><path class="cls-3" d="M455.19,345.25l-.33.72L636,456.67h.12L793,455.59v-.37l.13-.4ZM636.26,455.86,458.19,347.07,790.54,454.8Z"/></g><g class="cls-2"><path class="cls-3" d="M622.55,263.71l1.42.35,105.16,25.43-.44.64,1.15-.48.13,0,.09-.12,1-.44-.63-.15,51.73-75.12Zm107.07,25.07-104-25.16,154.64-48.3Z"/></g><g class="cls-2"><path class="cls-3" d="M622.92,263l.84,1,169,191.53.69-.4-63.1-165.6.78-.33-1.19-.29Zm168.94,190.3L625.21,264.36l104.28,25.21Z"/></g><g class="cls-2"><polygon class="cls-3" points="946.93 280.61 781.05 214.97 780.9 214.9 744.13 127.74 744.98 127.68 781.51 214.28 945.44 279.15 787.65 124.78 788.73 124.71 947.38 279.92 947.5 279.96 947.96 281.61 946.93 280.61"/></g><g class="cls-2"><path class="cls-3" d="M781.05,214.1l-.18.26L729,289.67l.81,0,217.88-9-.19-.68-.19-.08Zm-50.47,74.7,50.78-73.72,163.9,64.86Z"/></g><g class="cls-2"><polygon class="cls-3" points="787.65 124.78 788.72 124.71 946.71 279.27 939.26 114.48 940.07 114.42 947.57 280.25 947.62 281.27 787.65 124.78"/></g><g class="cls-2"><polygon class="cls-3" points="171.93 860.93 267.52 863.17 204.12 692.32 162.85 727.42 162.78 726.41 204.05 691.34 204.49 690.96 268.48 863.44 268.61 863.81 268.17 863.99 171.98 861.74 171.93 860.93"/></g><g class="cls-2"><polygon class="cls-3" points="172.67 871.83 261.01 863.82 171.98 861.74 171.93 860.93 268.1 863.18 268.1 863.29 268.11 863.18 268.25 863.96 268.17 863.99 172.72 872.63 172.67 871.83"/></g><g class="cls-2"><path class="cls-3" d="M203.72,691.63l115.6,117.92L280.94,622.32ZM318,807,204.89,691.67l75.54-67.81Z"/></g><g class="cls-2"><path class="cls-3" d="M203.93,691.79l64,172.55,51.13-55.91-.06-.32-.09-.1L204.6,691.36Zm64.32,171L205.34,693.27l112.75,115Z"/></g><g class="cls-2"><path class="cls-3" d="M235.86,574l-.51.61,45.08,48.86.07,0,113.09,55.84.57.37.07-1-.24-.12Zm45.07,48.81-42.74-46.3,150.05,99.29Z"/></g><g class="cls-2"><path class="cls-3" d="M280.12,622.37l.16.8,38.19,186.24L394.22,679v-.28l-.24-.12Zm38.71,184.81L281.25,623.82l112,55.29Z"/></g><g class="cls-2"><path class="cls-3" d="M234.54,574.24l212,94.29.75.81-.11-1.4-.15-.08L331.85,540.54Zm210.62,92.81L236.74,574.33l94.87-32.85Z"/></g><g class="cls-2"><path class="cls-3" d="M235.81,573.92l-.39.71L393.73,679.38l.16,0,53.28-10.8,0-.6-.22-.1Zm158.08,104.6-154-101.9,205.53,91.44Z"/></g><g class="cls-2"><path class="cls-3" d="M444.26,354.49l.28.41L331.39,540.8l.63.49L516.57,353l-1,0ZM333.9,538.22,445.26,355.28l69.35-1.48Z"/></g><g class="cls-2"><path class="cls-3" d="M444.62,353.61v1.16L331.23,541.06l.2.22,115.73,128v-1L445.43,355l.07-.13-.07-.12v-1.29l-.41.68ZM332.23,541l112.4-184.65,1.7,310.85Z"/></g><g class="cls-2"><path class="cls-3" d="M454.14,345.91l61.63,7.89.15-.19,122.19-169.7-.59-.54Zm61.26,7L456,345.34l179.33-159Z"/></g><g class="cls-2"><path class="cls-3" d="M444,355.3l71.63-1.52,0-.8L454.9,345.2l-.13.16Zm66.21-2.21-64.09,1.36,9.12-8.4Z"/></g><g class="cls-2"><polygon class="cls-3" points="623.71 263.87 552.44 140.77 553.34 140.71 623.85 262.51 637.34 183.85 574.3 139.28 575.57 139.2 638.01 183.34 638.23 183.48 624.46 263.74 624.25 265.15 623.71 263.87"/></g><g class="cls-2"><path class="cls-3" d="M454.8,345.33l.44.67,168.61-81.79.37.9.24-1.37,13.92-81.13-.86.76Zm168.91-81.94L457.52,344,637.2,184.73Z"/></g><g class="cls-2"><polygon class="cls-3" points="596.94 137.75 598.73 137.62 780.54 213.88 751.73 127.22 752.57 127.17 781.87 215.3 596.94 137.75"/></g><g class="cls-2"><polygon class="cls-3" points="552.44 140.77 553.34 140.71 624.25 263.19 780.04 214.53 596.93 137.75 598.73 137.62 781.36 214.22 781.62 214.33 781.58 214.89 624.18 264.05 623.87 264.15 552.44 140.77"/></g><g class="cls-2"><polygon class="cls-3" points="744.13 127.74 744.98 127.68 777.57 204.95 751.73 127.22 752.57 127.17 781.59 214.46 780.83 214.75 744.13 127.74"/></g><g class="cls-2"><polygon class="cls-3" points="161.42 706.41 202.9 691.72 159.71 681.14 159.65 680.3 204.4 691.25 204.55 691.29 204.94 691.85 161.48 707.24 161.42 706.41"/></g><g class="cls-2"><polygon class="cls-3" points="162.78 726.41 203.45 691.85 159.71 681.14 159.65 680.3 204.4 691.25 204.55 691.29 204.84 691.72 162.85 727.42 162.78 726.41"/></g><g class="cls-2"><polygon class="cls-3" points="159.96 684.93 276.57 624.77 158.33 660.87 158.27 660.05 280.57 622.7 281.16 622.53 281.05 623.37 160.02 685.8 159.96 684.93"/></g><g class="cls-2"><polygon class="cls-3" points="161.42 706.41 204.09 691.29 278.05 624.91 160.02 685.8 159.96 684.93 280.43 622.78 281.22 622.08 281.05 623.37 280.89 623.44 204.58 691.94 204.51 692 161.48 707.24 161.42 706.41"/></g><g class="cls-2"><polygon class="cls-3" points="157.03 641.79 235.25 574.09 240.01 440.15 154.88 610.12 154.77 608.54 240.13 438.14 240.89 438.34 236.04 574.31 236.02 574.64 235.81 574.67 157.1 642.79 157.03 641.79"/></g><g class="cls-2"><polygon class="cls-3" points="158.27 660.04 279.95 622.89 235.61 574.85 157.1 642.79 157.03 641.79 235.38 573.99 235.47 573.91 235.79 573.86 281.41 623.29 158.33 660.86 158.27 660.04"/></g><g class="cls-2"><path class="cls-3" d="M191.11,320.23l49,118.31.05,0,91.24,102.68.64-.48L191.82,319.86ZM240.83,438.1l-47.2-113.88L328.71,537Z"/></g><g class="cls-2"><path class="cls-3" d="M240.12,437.31l0,1-4.87,136.55,97.21-33.67-.4-.44Zm-4.05,136.41,4.78-134.38L331,540.82Z"/></g><g class="cls-2"><polygon class="cls-3" points="190.57 320.39 368.78 153.25 370.06 153.17 192.4 319.77 514.75 352.89 374.13 152.89 375.08 152.82 515.92 353.15 516.42 353.87 190.57 320.39"/></g><g class="cls-2"><path class="cls-3" d="M190.7,319.6l141,222,.36-.36L516.46,353.06l-.83-.08ZM331.8,540.36,192.27,320.57l322.45,33.12Z"/></g><g class="cls-2"><polygon class="cls-3" points="385.26 152.13 389.44 151.85 635.15 182.94 541.74 141.5 543.46 141.38 637.94 183.31 638.36 183.5 637.99 184.11 385.26 152.13"/></g><g class="cls-2"><polygon class="cls-3" points="374.14 152.89 375.08 152.82 515.59 352.68 637.06 183.99 385.27 152.13 389.44 151.85 637.84 183.28 638.5 183.37 515.59 354.07 374.14 152.89"/></g><g class="cls-2"><polygon class="cls-3" points="541.75 141.5 543.47 141.38 634.24 181.65 574.3 139.28 575.57 139.2 638.01 183.34 637.62 184.04 541.75 141.5"/></g><g class="cls-2"><polygon class="cls-3" points="144.33 454.95 240.12 437.99 266.71 241.82 138.68 371.84 138.61 370.77 266.99 240.4 267.84 239.53 240.93 438.11 241.66 438.53 144.39 455.75 144.33 454.95"/></g><g class="cls-2"><polygon class="cls-3" points="154.77 608.54 239.77 438.86 144.39 455.75 144.33 454.95 240.42 437.92 241.21 437.79 154.88 610.13 154.77 608.54"/></g><g class="cls-2"><path class="cls-3" d="M190.28,320.75l1.29-.27,117.85-19.24L267.33,240l-.34.36ZM308,300.65,192.6,319.5l74.63-78.19Z"/></g><g class="cls-2"><path class="cls-3" d="M190.28,320.75l1-.2,49.45,119.3L267.85,239.5Zm50,116L192,320.17l74.75-78.32Z"/></g><g class="cls-2"><polygon class="cls-3" points="308.36 300.78 371.01 153.1 371.91 153.04 310.62 297.52 376.49 202.74 372.52 153 373.33 152.94 377.3 202.82 377.31 202.97 309.06 301.17 308.36 300.78"/></g><g class="cls-2"><polygon class="cls-3" points="368.78 153.25 370.05 153.17 192.72 319.47 308.44 300.58 371.01 153.1 371.91 153.04 309.1 301.1 309.01 301.31 191.55 320.48 190.24 320.69 368.78 153.25"/></g><g class="cls-2"><polygon class="cls-3" points="412.75 150.26 378.19 201.66 476.32 145.94 478.18 145.82 377.1 203.2 376.56 202.63 411.74 150.33 412.75 150.26"/></g><g class="cls-2"><polygon class="cls-3" points="372.52 153 373.33 152.94 377.25 202.19 476.32 145.94 478.18 145.82 377.1 203.2 376.55 203.51 372.52 153"/></g><g class="cls-2"><polygon class="cls-3" points="131.15 261 256.68 241.88 130.49 251.35 130.44 250.54 267.12 240.29 267.65 240.21 267.7 241.05 267.31 241.08 131.21 261.82 131.15 261"/></g><g class="cls-2"><polygon class="cls-3" points="138.61 370.77 266.15 241.25 131.21 261.81 131.15 261 267.21 240.27 267.65 240.21 267.69 240.83 138.68 371.84 138.61 370.77"/></g><g class="cls-2"><polygon class="cls-3" points="127.18 202.63 148.59 168.22 149.58 168.15 127.28 204 127.18 202.63"/><polygon class="cls-3" points="131.15 260.96 307.94 300.36 230.48 162.65 231.37 162.59 309.08 300.75 308.89 300.85 308.64 301.34 131.2 261.79 131.15 260.96"/></g><g class="cls-2"><polygon class="cls-3" points="131.15 260.96 307.82 300.33 267.08 241.09 130.49 251.35 130.44 250.54 267.25 240.28 267.48 240.25 309 300.64 308.64 301.34 131.2 261.79 131.15 260.96"/></g><g class="cls-2"><polygon class="cls-3" points="298.89 158 300.33 157.91 376.45 202.11 373.11 152.96 373.91 152.9 377.31 202.82 377.35 203.57 298.89 158"/></g><g class="cls-2"><polygon class="cls-3" points="230.48 162.65 231.37 162.59 308.76 300.18 376.32 202.97 298.9 158 300.33 157.91 377.1 202.49 377.32 202.63 377.29 202.99 308.69 301.7 230.48 162.65"/></g><g class="cls-2"><polygon class="cls-3" points="373.11 152.96 373.91 152.9 377.22 201.65 411.74 150.33 412.75 150.26 377.23 203.08 376.58 204.05 373.11 152.96"/></g><g class="cls-2"><polygon class="cls-3" points="127.18 202.63 148.59 168.22 149.58 168.15 127.28 204.01 127.18 202.63"/></g><path class="cls-4" d="M474.28,1699a3.13,3.13,0,1,0,.33,4.41A3.12,3.12,0,0,0,474.28,1699Z"/><path class="cls-4" d="M487.29,1520.7A7.32,7.32,0,1,0,488,1531,7.32,7.32,0,0,0,487.29,1520.7Z"/><path class="cls-4" d="M474.42,1698.84a3.32,3.32,0,1,0,.34,4.69A3.32,3.32,0,0,0,474.42,1698.84Z"/><path class="cls-4" d="M462.05,1638.44a6.28,6.28,0,1,0,.65,8.86A6.28,6.28,0,0,0,462.05,1638.44Z"/><path class="cls-4" d="M518.55,1484.2a4.42,4.42,0,1,0,.45,6.22A4.4,4.4,0,0,0,518.55,1484.2Z"/><path class="cls-4" d="M485.4,1522.9a4.41,4.41,0,1,0,.45,6.22A4.42,4.42,0,0,0,485.4,1522.9Z"/><path class="cls-4" d="M459.81,1641a2.84,2.84,0,1,0-3.72,4.29,2.84,2.84,0,0,0,3.72-4.29Z"/><path class="cls-4" d="M450.91,1445.11a2.56,2.56,0,1,0,.27,3.61A2.57,2.57,0,0,0,450.91,1445.11Z"/><path class="cls-4" d="M538,1397.07a5.59,5.59,0,1,0,.57,7.89A5.58,5.58,0,0,0,538,1397.07Z"/><path class="cls-4" d="M518.29,1484.48a4,4,0,1,0,.42,5.68A4,4,0,0,0,518.29,1484.48Z"/><path class="cls-4" d="M451.77,1444.13a3.87,3.87,0,1,0,.39,5.45A3.86,3.86,0,0,0,451.77,1444.13Z"/><path class="cls-4" d="M679.29,1412.66a4.19,4.19,0,1,0,.42,5.9A4.19,4.19,0,0,0,679.29,1412.66Z"/><path class="cls-4" d="M575.22,1219.26a5.87,5.87,0,1,0,.6,8.27A5.88,5.88,0,0,0,575.22,1219.26Z"/><path class="cls-4" d="M536.09,1399.23a2.73,2.73,0,0,0-3.56,4.13,2.73,2.73,0,0,0,3.56-4.13Z"/><path class="cls-4" d="M679.06,1412.93a3.82,3.82,0,1,0,.39,5.4A3.83,3.83,0,0,0,679.06,1412.93Z"/><path class="cls-4" d="M740.19,1190.76a4.15,4.15,0,1,0,.42,5.85A4.14,4.14,0,0,0,740.19,1190.76Z"/><path class="cls-4" d="M785.81,1020.63a4.17,4.17,0,1,0,.43,5.87A4.16,4.16,0,0,0,785.81,1020.63Z"/><path class="cls-4" d="M574.25,1220.39a4.38,4.38,0,1,0,.44,6.17A4.38,4.38,0,0,0,574.25,1220.39Z"/><path class="cls-4" d="M738.88,1192.27a2.14,2.14,0,1,0,.22,3A2.15,2.15,0,0,0,738.88,1192.27Z"/><path class="cls-4" d="M795.41,1032a4.18,4.18,0,1,0,.44,5.9A4.18,4.18,0,0,0,795.41,1032Z"/><path class="cls-4" d="M710.78,1001.44a3.34,3.34,0,1,0,.34,4.72A3.35,3.35,0,0,0,710.78,1001.44Z"/><path class="cls-4" d="M787.6,1018.57a6.89,6.89,0,1,0,.7,9.71A6.89,6.89,0,0,0,787.6,1018.57Z"/><path class="cls-4" d="M794.28,1033.29a2.47,2.47,0,1,0,.26,3.48A2.47,2.47,0,0,0,794.28,1033.29Z"/><path class="cls-4" d="M834.46,1021.42a3.16,3.16,0,1,0,.33,4.45A3.15,3.15,0,0,0,834.46,1021.42Z"/><path class="cls-4" d="M1003.7,879.22a3.45,3.45,0,1,0,.35,4.87A3.46,3.46,0,0,0,1003.7,879.22Z"/><path class="cls-4" d="M713.36,998.47a7.28,7.28,0,1,0,.74,10.26A7.28,7.28,0,0,0,713.36,998.47Z"/><path class="cls-4" d="M833.73,1022.28a2,2,0,1,0,.21,2.86A2,2,0,0,0,833.73,1022.28Z"/><path class="cls-4" d="M942.21,843.35a4.22,4.22,0,1,0,.42,5.95A4.23,4.23,0,0,0,942.21,843.35Z"/><path class="cls-4" d="M978,941.07a5.28,5.28,0,1,0,.54,7.45A5.26,5.26,0,0,0,978,941.07Z"/><path class="cls-4" d="M1005.19,877.5a5.73,5.73,0,1,0,.58,8.08A5.75,5.75,0,0,0,1005.19,877.5Z"/><path class="cls-4" d="M941.29,844.42a2.81,2.81,0,1,0,.28,4A2.82,2.82,0,0,0,941.29,844.42Z"/><path class="cls-4" d="M1007,868.66a2.09,2.09,0,1,0,.21,3A2.1,2.1,0,0,0,1007,868.66Z"/><path class="cls-4" d="M1109.56,575.43a2.7,2.7,0,1,0,.28,3.8A2.69,2.69,0,0,0,1109.56,575.43Z"/><path class="cls-4" d="M977.21,942a4.05,4.05,0,1,0,.42,5.71A4.05,4.05,0,0,0,977.21,942Z"/><path class="cls-4" d="M1007.62,868a3,3,0,0,0-4.2.31,3,3,0,1,0,4.2-.31Z"/><path class="cls-4" d="M1191.86,696.16a3,3,0,1,0,.33,4.29A3,3,0,0,0,1191.86,696.16Z"/><path class="cls-4" d="M1197.26,654.54a4.3,4.3,0,1,0,.44,6.05A4.29,4.29,0,0,0,1197.26,654.54Z"/><path class="cls-4" d="M1110.15,574.76a3.59,3.59,0,1,0,.37,5.06A3.58,3.58,0,0,0,1110.15,574.76Z"/><path class="cls-4" d="M1192.68,695.24a4.26,4.26,0,1,0,.42,6A4.26,4.26,0,0,0,1192.68,695.24Z"/><path class="cls-4" d="M1237.05,614.87a3.47,3.47,0,1,0,.35,4.89A3.48,3.48,0,0,0,1237.05,614.87Z"/><path class="cls-4" d="M1238.68,330.69a5.25,5.25,0,1,0,.54,7.41A5.25,5.25,0,0,0,1238.68,330.69Z"/><path class="cls-4" d="M1198,653.72a5.37,5.37,0,1,0,.55,7.58A5.37,5.37,0,0,0,1198,653.72Z"/><path class="cls-4" d="M1239,612.61a6.46,6.46,0,1,0,.67,9.11A6.45,6.45,0,0,0,1239,612.61Z"/><path class="cls-4" d="M1396.44,500.26a6.73,6.73,0,1,0,.7,9.5A6.73,6.73,0,0,0,1396.44,500.26Z"/><path class="cls-4" d="M1305,367.08a5.27,5.27,0,1,0,.54,7.43A5.28,5.28,0,0,0,1305,367.08Z"/><path class="cls-4" d="M1239,330.28a5.8,5.8,0,1,0,.61,8.18A5.79,5.79,0,0,0,1239,330.28Z"/><path class="cls-4" d="M1394.81,502.14a4.25,4.25,0,1,0,.43,6A4.25,4.25,0,0,0,1394.81,502.14Z"/><path class="cls-4" d="M1397.18,505.81a2.24,2.24,0,0,0-2.93,3.38,2.24,2.24,0,1,0,2.93-3.38Z"/><path class="cls-4" d="M1502.66,254.07a1.48,1.48,0,0,0-1.93,2.24,1.49,1.49,0,0,0,2.09-.16A1.47,1.47,0,0,0,1502.66,254.07Z"/><path class="cls-4" d="M1303.61,368.66a3.19,3.19,0,1,0,.32,4.5A3.2,3.2,0,0,0,1303.61,368.66Z"/><path class="cls-4" d="M1398,504.86a3.5,3.5,0,1,0,.35,4.93A3.5,3.5,0,0,0,1398,504.86Z"/><path class="cls-4" d="M1504.32,252.16a4,4,0,1,0,.41,5.65A4,4,0,0,0,1504.32,252.16Z"/><path class="cls-4" d="M1524.28,123.72a5.53,5.53,0,1,0,.56,7.8A5.53,5.53,0,0,0,1524.28,123.72Z"/><path class="cls-4" d="M1517,76.3a2.67,2.67,0,0,1-.73-1l5.13-.35a2.45,2.45,0,0,1-.57,1.12A2.72,2.72,0,0,1,1517,76.3Z"/><path class="cls-4" d="M1523.11,125.08a3.73,3.73,0,1,0,.38,5.26A3.73,3.73,0,0,0,1523.11,125.08Z"/><path class="cls-4" d="M486,1522.22a5.31,5.31,0,1,0,.54,7.49A5.31,5.31,0,0,0,486,1522.22Z"/><path class="cls-4" d="M274.79,1283.33a2.42,2.42,0,1,0,.25,3.41A2.43,2.43,0,0,0,274.79,1283.33Z"/><path class="cls-4" d="M235.77,1578.29a4,4,0,1,0,.41,5.71A4.07,4.07,0,0,0,235.77,1578.29Z"/><path class="cls-4" d="M484.78,1523.62a3.47,3.47,0,1,0,.35,4.88A3.47,3.47,0,0,0,484.78,1523.62Z"/><path class="cls-4" d="M486.74,1521.34a6.47,6.47,0,1,0,.66,9.13A6.46,6.46,0,0,0,486.74,1521.34Z"/><path class="cls-4" d="M237.06,1576.78a6,6,0,1,0,.62,8.53A6,6,0,0,0,237.06,1576.78Z"/><path class="cls-4" d="M486.26,1521.9a5.74,5.74,0,1,0,.6,8.1A5.73,5.73,0,0,0,486.26,1521.9Z"/><path class="cls-4" d="M517.37,1485.55a2.62,2.62,0,1,0,.26,3.69A2.62,2.62,0,0,0,517.37,1485.55Z"/><path class="cls-4" d="M446.62,1288.63a3.9,3.9,0,1,0,.39,5.5A3.91,3.91,0,0,0,446.62,1288.63Z"/><path class="cls-4" d="M275.05,1283a2.81,2.81,0,1,0,.29,4A2.82,2.82,0,0,0,275.05,1283Z"/><path class="cls-4" d="M518.23,1484.57a3.93,3.93,0,1,0,.41,5.54A3.93,3.93,0,0,0,518.23,1484.57Z"/><path class="cls-4" d="M518.92,1483.76a5,5,0,1,0,.51,7A5,5,0,0,0,518.92,1483.76Z"/><path class="cls-4" d="M485.13,1523.2a4,4,0,1,0,.41,5.66A4,4,0,0,0,485.13,1523.2Z"/><path class="cls-4" d="M274.94,1283.16a2.65,2.65,0,1,0,.27,3.74A2.63,2.63,0,0,0,274.94,1283.16Z"/><path class="cls-4" d="M518,1484.87a3.52,3.52,0,1,0,.37,5A3.51,3.51,0,0,0,518,1484.87Z"/><path class="cls-4" d="M536.89,1398.32a3.94,3.94,0,1,0,.41,5.56A3.94,3.94,0,0,0,536.89,1398.32Z"/><path class="cls-4" d="M608.42,1128.75a2.08,2.08,0,1,0,.22,2.93A2.08,2.08,0,0,0,608.42,1128.75Z"/><path class="cls-4" d="M448.22,1286.77a6.36,6.36,0,1,0,.65,9A6.36,6.36,0,0,0,448.22,1286.77Z"/><path class="cls-4" d="M535.7,1399.69a2.12,2.12,0,1,0,.21,3A2.12,2.12,0,0,0,535.7,1399.69Z"/><path class="cls-4" d="M536.34,1399a3.1,3.1,0,1,0,.32,4.38A3.1,3.1,0,0,0,536.34,1399Z"/><path class="cls-4" d="M518.08,1484.73a3.7,3.7,0,1,0,.38,5.22A3.7,3.7,0,0,0,518.08,1484.73Z"/><path class="cls-4" d="M446.05,1289.28a3,3,0,1,0,.31,4.28A3,3,0,0,0,446.05,1289.28Z"/><path class="cls-4" d="M536.79,1398.42a3.8,3.8,0,1,0,.39,5.35A3.8,3.8,0,0,0,536.79,1398.42Z"/><path class="cls-4" d="M574.45,1220.14a4.7,4.7,0,1,0,.49,6.62A4.7,4.7,0,0,0,574.45,1220.14Z"/><path class="cls-4" d="M686.08,1120.9a5.32,5.32,0,1,0,.54,7.51A5.33,5.33,0,0,0,686.08,1120.9Z"/><path class="cls-4" d="M610,1126.88a4.56,4.56,0,1,0,.47,6.43A4.56,4.56,0,0,0,610,1126.88Z"/><path class="cls-4" d="M577.19,1217a8.89,8.89,0,1,0,.91,12.55A8.88,8.88,0,0,0,577.19,1217Z"/><path class="cls-4" d="M573.82,1220.88a3.72,3.72,0,1,0,.38,5.25A3.73,3.73,0,0,0,573.82,1220.88Z"/><path class="cls-4" d="M536.74,1398.48a3.72,3.72,0,1,0,.38,5.25A3.7,3.7,0,0,0,536.74,1398.48Z"/><path class="cls-4" d="M609.57,1127.42a3.84,3.84,0,1,0,.4,5.41A3.83,3.83,0,0,0,609.57,1127.42Z"/><path class="cls-4" d="M573.5,1221.25a3.25,3.25,0,1,0,.33,4.58A3.25,3.25,0,0,0,573.5,1221.25Z"/><path class="cls-4" d="M786.24,1020.14a4.81,4.81,0,1,0,.5,6.79A4.8,4.8,0,0,0,786.24,1020.14Z"/><path class="cls-4" d="M712.76,1080a7.93,7.93,0,1,0,.81,11.18A7.92,7.92,0,0,0,712.76,1080Z"/><path class="cls-4" d="M685.2,1121.93a4,4,0,1,0,.4,5.59A4,4,0,0,0,685.2,1121.93Z"/><path class="cls-4" d="M785.93,1020.5a4.35,4.35,0,1,0,.45,6.14A4.34,4.34,0,0,0,785.93,1020.5Z"/><path class="cls-4" d="M786.5,1019.84a5.21,5.21,0,1,0,.53,7.35A5.22,5.22,0,0,0,786.5,1019.84Z"/><path class="cls-4" d="M575.79,1218.6a6.74,6.74,0,1,0,.69,9.51A6.74,6.74,0,0,0,575.79,1218.6Z"/><path class="cls-4" d="M687.3,1119.49a7.19,7.19,0,1,0,.74,10.14A7.2,7.2,0,0,0,687.3,1119.49Z"/><path class="cls-4" d="M786.18,1020.21a4.73,4.73,0,1,0,.49,6.67A4.71,4.71,0,0,0,786.18,1020.21Z"/><path class="cls-4" d="M711,1001.2a3.67,3.67,0,1,0,.38,5.17A3.65,3.65,0,0,0,711,1001.2Z"/><path class="cls-4" d="M750.63,929.23a6,6,0,1,0,.62,8.53A6,6,0,0,0,750.63,929.23Z"/><path class="cls-4" d="M708.73,1084.64a1.76,1.76,0,1,0,.18,2.48A1.78,1.78,0,0,0,708.73,1084.64Z"/><path class="cls-4" d="M711.53,1000.57a4.49,4.49,0,1,0,.46,6.34A4.5,4.5,0,0,0,711.53,1000.57Z"/><path class="cls-4" d="M711.61,1000.49a4.61,4.61,0,1,0,.47,6.49A4.61,4.61,0,0,0,711.61,1000.49Z"/><path class="cls-4" d="M785.11,1021.44a3.09,3.09,0,1,0,.32,4.37A3.09,3.09,0,0,0,785.11,1021.44Z"/><path class="cls-4" d="M710.41,1082.69a4.33,4.33,0,1,0,.44,6.11A4.32,4.32,0,0,0,710.41,1082.69Z"/><path class="cls-4" d="M712.09,999.92a5.35,5.35,0,1,0,.55,7.55A5.36,5.36,0,0,0,712.09,999.92Z"/><path class="cls-4" d="M1003.53,879.43a3.18,3.18,0,1,0,.32,4.49A3.17,3.17,0,0,0,1003.53,879.43Z"/><path class="cls-4" d="M900.27,767.19a5.24,5.24,0,1,0,.53,7.39A5.25,5.25,0,0,0,900.27,767.19Z"/><path class="cls-4" d="M749.77,930.22a4.73,4.73,0,1,0,.49,6.68A4.73,4.73,0,0,0,749.77,930.22Z"/><path class="cls-4" d="M1004.25,878.59a4.3,4.3,0,1,0,.43,6.06A4.28,4.28,0,0,0,1004.25,878.59Z"/><path class="cls-4" d="M1003.44,879.53a3,3,0,1,0,.31,4.3A3.05,3.05,0,0,0,1003.44,879.53Z"/><path class="cls-4" d="M712.22,999.78a5.54,5.54,0,1,0,.56,7.82A5.54,5.54,0,0,0,712.22,999.78Z"/><path class="cls-4" d="M748.78,931.37a3.21,3.21,0,1,0,.33,4.53A3.21,3.21,0,0,0,748.78,931.37Z"/><path class="cls-4" d="M1004.34,878.48a4.44,4.44,0,1,0,.46,6.27A4.45,4.45,0,0,0,1004.34,878.48Z"/><path class="cls-4" d="M977.7,941.42a4.81,4.81,0,1,0,.49,6.79A4.82,4.82,0,0,0,977.7,941.42Z"/><path class="cls-4" d="M970,681.13a2.7,2.7,0,1,0,.27,3.8A2.71,2.71,0,0,0,970,681.13Z"/><path class="cls-4" d="M900.08,767.41a5,5,0,1,0,.5,7A5,5,0,0,0,900.08,767.41Z"/><path class="cls-4" d="M976.62,942.67a3.17,3.17,0,1,0,.32,4.47A3.16,3.16,0,0,0,976.62,942.67Z"/><path class="cls-4" d="M977.12,942.1a3.92,3.92,0,1,0,.4,5.53A3.91,3.91,0,0,0,977.12,942.1Z"/><path class="cls-4" d="M1003.65,879.28A3.37,3.37,0,1,0,1004,884,3.4,3.4,0,0,0,1003.65,879.28Z"/><path class="cls-4" d="M899.55,768a4.15,4.15,0,1,0,.43,5.86A4.14,4.14,0,0,0,899.55,768Z"/><path class="cls-4" d="M975.75,943.68a1.84,1.84,0,0,0-2.59.19,1.83,1.83,0,1,0,2.59-.19Z"/><path class="cls-4" d="M1110.1,574.81a3.52,3.52,0,1,0,.37,5A3.51,3.51,0,0,0,1110.1,574.81Z"/><path class="cls-4" d="M945,640.68a3.91,3.91,0,1,0,.4,5.52A3.91,3.91,0,0,0,945,640.68Z"/><path class="cls-4" d="M972.5,678.19a6.58,6.58,0,1,0,.68,9.28A6.56,6.56,0,0,0,972.5,678.19Z"/><path class="cls-4" d="M1110.7,574.11a4.44,4.44,0,1,0,.46,6.27A4.45,4.45,0,0,0,1110.7,574.11Z"/><path class="cls-4" d="M1109.65,575.34a2.82,2.82,0,1,0,.29,4A2.81,2.81,0,0,0,1109.65,575.34Z"/><path class="cls-4" d="M977.36,941.82a4.29,4.29,0,1,0,.44,6A4.28,4.28,0,0,0,977.36,941.82Z"/><path class="cls-4" d="M970.39,680.62a3.37,3.37,0,0,0-4.4,5.1,3.37,3.37,0,1,0,4.4-5.1Z"/><path class="cls-4" d="M1110.47,574.39a4.08,4.08,0,1,0,.4,5.75A4.08,4.08,0,0,0,1110.47,574.39Z"/><path class="cls-4" d="M1197.67,654.06a4.92,4.92,0,1,0,.51,7A4.92,4.92,0,0,0,1197.67,654.06Z"/><path class="cls-4" d="M1123.13,601.44a7.28,7.28,0,1,0,.74,10.26A7.27,7.27,0,0,0,1123.13,601.44Z"/><path class="cls-4" d="M946.71,638.68a6.55,6.55,0,1,0,.68,9.25A6.53,6.53,0,0,0,946.71,638.68Z"/><path class="cls-4" d="M1196.5,655.41a3.13,3.13,0,1,0-4.09,4.74,3.13,3.13,0,0,0,4.09-4.74Z"/><path class="cls-4" d="M1197.75,654a5,5,0,1,0,.51,7.1A5,5,0,0,0,1197.75,654Z"/><path class="cls-4" d="M1109.45,575.56a2.52,2.52,0,1,0,.25,3.56A2.53,2.53,0,0,0,1109.45,575.56Z"/><path class="cls-4" d="M946.07,639.44a5.56,5.56,0,1,0,.57,7.83A5.56,5.56,0,0,0,946.07,639.44Z"/><path class="cls-4" d="M1196.67,655.21a3.4,3.4,0,1,0,.36,4.8A3.39,3.39,0,0,0,1196.67,655.21Z"/><path class="cls-4" d="M1237.82,331.69a3.93,3.93,0,1,0,.41,5.55A3.93,3.93,0,0,0,1237.82,331.69Z"/><path class="cls-4" d="M1166.37,454.57a2.65,2.65,0,1,0,.27,3.73A2.65,2.65,0,0,0,1166.37,454.57Z"/><path class="cls-4" d="M1121.27,603.58a4.44,4.44,0,1,0,.46,6.27A4.44,4.44,0,0,0,1121.27,603.58Z"/><path class="cls-4" d="M1238.39,331a4.8,4.8,0,1,0,.48,6.76A4.81,4.81,0,0,0,1238.39,331Z"/><path class="cls-4" d="M1237.16,332.44a2.94,2.94,0,1,0,.3,4.14A2.93,2.93,0,0,0,1237.16,332.44Z"/><path class="cls-4" d="M1197.41,654.37a4.52,4.52,0,1,0,.47,6.38A4.5,4.5,0,0,0,1197.41,654.37Z"/><path class="cls-4" d="M1121.1,603.79a4.17,4.17,0,1,0,.42,5.88A4.18,4.18,0,0,0,1121.1,603.79Z"/><path class="cls-4" d="M1237.55,332a3.51,3.51,0,1,0,.35,5A3.52,3.52,0,0,0,1237.55,332Z"/><path class="cls-4" d="M1304,368.18a3.82,3.82,0,1,0,.4,5.39A3.81,3.81,0,0,0,1304,368.18Z"/><path class="cls-4" d="M1294.51,160.64a4.35,4.35,0,1,0,.46,6.15A4.36,4.36,0,0,0,1294.51,160.64Z"/><path class="cls-4" d="M1168,452.69a5.13,5.13,0,1,0,.52,7.24A5.12,5.12,0,0,0,1168,452.69Z"/><path class="cls-4" d="M1304.6,367.5a4.72,4.72,0,1,0,.49,6.65A4.72,4.72,0,0,0,1304.6,367.5Z"/><path class="cls-4" d="M1304.24,367.94a4.14,4.14,0,1,0,.41,5.83A4.17,4.17,0,0,0,1304.24,367.94Z"/><path class="cls-4" d="M1238.77,330.59a5.39,5.39,0,1,0,.55,7.6A5.38,5.38,0,0,0,1238.77,330.59Z"/><path class="cls-4" d="M1165.84,455.2a1.82,1.82,0,1,0,.17,2.56A1.82,1.82,0,0,0,1165.84,455.2Z"/><path class="cls-4" d="M1304.65,367.45a4.79,4.79,0,1,0,.49,6.75A4.79,4.79,0,0,0,1304.65,367.45Z"/><path class="cls-4" d="M1504.29,252.2a3.95,3.95,0,1,0,.39,5.57A4,4,0,0,0,1504.29,252.2Z"/><path class="cls-4" d="M1229.15,166.58a4.59,4.59,0,1,0,.45,6.48A4.59,4.59,0,0,0,1229.15,166.58Z"/><path class="cls-4" d="M1294.45,160.71a4.27,4.27,0,1,0,.45,6A4.25,4.25,0,0,0,1294.45,160.71Z"/><path class="cls-4" d="M1504.15,252.36a3.73,3.73,0,1,0,.37,5.27A3.74,3.74,0,0,0,1504.15,252.36Z"/><path class="cls-4" d="M1503.18,253.48a2.26,2.26,0,1,0,.24,3.19A2.26,2.26,0,0,0,1503.18,253.48Z"/><path class="cls-4" d="M1304.48,367.64A4.53,4.53,0,1,0,1305,374,4.54,4.54,0,0,0,1304.48,367.64Z"/><path class="cls-4" d="M1293.84,161.43a3.32,3.32,0,1,0,.35,4.69A3.31,3.31,0,0,0,1293.84,161.43Z"/><path class="cls-4" d="M1506.21,250a6.87,6.87,0,1,0,.69,9.68A6.85,6.85,0,0,0,1506.21,250Z"/><path class="cls-4" d="M1516.06,77.35a4.21,4.21,0,0,1-1.26-2l8-.55a4,4,0,0,1-1,2.12A4.11,4.11,0,0,1,1516.06,77.35Z"/><path class="cls-4" d="M1448,194.12a2.65,2.65,0,1,0,.29,3.74A2.65,2.65,0,0,0,1448,194.12Z"/><path class="cls-4" d="M1230.31,165.23a6.38,6.38,0,1,0,.65,9A6.39,6.39,0,0,0,1230.31,165.23Z"/><path class="cls-4" d="M1515.45,78.07a5.1,5.1,0,0,1-1.6-2.65l9.91-.67a4.92,4.92,0,0,1-1.18,2.8A5.06,5.06,0,0,1,1515.45,78.07Z"/><path class="cls-4" d="M1504.5,252a4.28,4.28,0,1,0,.45,6A4.27,4.27,0,0,0,1504.5,252Z"/><path class="cls-4" d="M1229.53,166.14a5.18,5.18,0,1,0,.53,7.3A5.19,5.19,0,0,0,1229.53,166.14Z"/><path class="cls-4" d="M1516.45,76.9a3.47,3.47,0,0,1-1-1.58l6.79-.47a3.56,3.56,0,0,1-.8,1.7A3.51,3.51,0,0,1,1516.45,76.9Z"/><path class="cls-4" d="M1525.57,122.24a7.49,7.49,0,1,0,.77,10.56A7.5,7.5,0,0,0,1525.57,122.24Z"/><path class="cls-4" d="M1449.16,192.8a4.4,4.4,0,1,0,.45,6.2A4.41,4.41,0,0,0,1449.16,192.8Z"/><path class="cls-4" d="M1524.52,123.45a5.9,5.9,0,1,0,.6,8.32A5.89,5.89,0,0,0,1524.52,123.45Z"/><path class="cls-4" d="M1524.57,123.39a6,6,0,1,0,.62,8.42A6,6,0,0,0,1524.57,123.39Z"/><path class="cls-4" d="M1449.57,192.31a5,5,0,1,0,.52,7.12A5,5,0,0,0,1449.57,192.31Z"/><path class="cls-4" d="M1522.82,125.43a3.29,3.29,0,1,0,.33,4.63A3.28,3.28,0,0,0,1522.82,125.43Z"/><path class="cls-4" d="M1523.47,124.68a4.27,4.27,0,1,0,.42,6A4.28,4.28,0,0,0,1523.47,124.68Z"/><path class="cls-4" d="M277.67,1280a6.81,6.81,0,1,0,.7,9.62A6.8,6.8,0,0,0,277.67,1280Z"/><path class="cls-4" d="M314.25,1161.66a5.47,5.47,0,1,0,.55,7.72A5.47,5.47,0,0,0,314.25,1161.66Z"/><path class="cls-4" d="M276.68,1281.15a5.3,5.3,0,1,0,.55,7.48A5.31,5.31,0,0,0,276.68,1281.15Z"/><path class="cls-4" d="M276.16,1281.75a4.51,4.51,0,1,0,.47,6.37A4.51,4.51,0,0,0,276.16,1281.75Z"/><path class="cls-4" d="M234.61,1579.63a2.29,2.29,0,1,0,.24,3.22A2.29,2.29,0,0,0,234.61,1579.63Z"/><path class="cls-4" d="M275.29,1282.75a3.18,3.18,0,1,0,.33,4.5A3.19,3.19,0,0,0,275.29,1282.75Z"/><path class="cls-4" d="M446.26,1289a3.36,3.36,0,1,0,.35,4.74A3.36,3.36,0,0,0,446.26,1289Z"/><path class="cls-4" d="M370.54,1270a5.51,5.51,0,1,0,.56,7.75A5.49,5.49,0,0,0,370.54,1270Z"/><path class="cls-4" d="M312,1164.27a2,2,0,0,0-2.85.2,2,2,0,1,0,2.85-.2Z"/><path class="cls-4" d="M446,1289.33a3,3,0,1,0,.3,4.19A3,3,0,0,0,446,1289.33Z"/><path class="cls-4" d="M446.84,1288.35a4.25,4.25,0,1,0,.44,6A4.27,4.27,0,0,0,446.84,1288.35Z"/><path class="cls-4" d="M275.7,1282.3a3.8,3.8,0,1,0,.38,5.35A3.8,3.8,0,0,0,275.7,1282.3Z"/><path class="cls-4" d="M312.68,1163.47a3.07,3.07,0,1,0,.31,4.34A3.07,3.07,0,0,0,312.68,1163.47Z"/><path class="cls-4" d="M448,1287.08a5.94,5.94,0,1,0,.6,8.39A5.95,5.95,0,0,0,448,1287.08Z"/><path class="cls-4" d="M608,1129.22a1.45,1.45,0,0,0-2.07.15,1.47,1.47,0,0,0,2.22,1.92A1.45,1.45,0,0,0,608,1129.22Z"/><path class="cls-4" d="M527.12,1110.49a4.46,4.46,0,1,0,.46,6.29A4.46,4.46,0,0,0,527.12,1110.49Z"/><path class="cls-4" d="M369.8,1270.84a4.37,4.37,0,1,0,.44,6.15A4.37,4.37,0,0,0,369.8,1270.84Z"/><path class="cls-4" d="M609.57,1127.42a3.85,3.85,0,1,0,.4,5.42A3.84,3.84,0,0,0,609.57,1127.42Z"/><path class="cls-4" d="M610.23,1126.68a4.83,4.83,0,1,0,.49,6.8A4.83,4.83,0,0,0,610.23,1126.68Z"/><path class="cls-4" d="M448.17,1286.82a6.29,6.29,0,1,0,.64,8.86A6.28,6.28,0,0,0,448.17,1286.82Z"/><path class="cls-4" d="M368.76,1272a2.79,2.79,0,1,0,.29,3.94A2.79,2.79,0,0,0,368.76,1272Z"/><path class="cls-4" d="M612.11,1124.49a7.72,7.72,0,1,0,.79,10.89A7.72,7.72,0,0,0,612.11,1124.49Z"/><path class="cls-4" d="M685.17,1122a3.93,3.93,0,1,0,.41,5.55A3.93,3.93,0,0,0,685.17,1122Z"/><path class="cls-4" d="M625.31,1013.14a3,3,0,1,0,.31,4.25A3,3,0,0,0,625.31,1013.14Z"/><path class="cls-4" d="M527,1110.6a4.31,4.31,0,1,0,.44,6.09A4.32,4.32,0,0,0,527,1110.6Z"/><path class="cls-4" d="M686.49,1120.43a5.95,5.95,0,1,0,.61,8.38A5.94,5.94,0,0,0,686.49,1120.43Z"/><path class="cls-4" d="M685.66,1121.39a4.68,4.68,0,1,0,.48,6.6A4.68,4.68,0,0,0,685.66,1121.39Z"/><path class="cls-4" d="M608.8,1128.32a2.65,2.65,0,1,0,.27,3.74A2.65,2.65,0,0,0,608.8,1128.32Z"/><path class="cls-4" d="M526.4,1111.31a3.37,3.37,0,1,0,.35,4.76A3.37,3.37,0,0,0,526.4,1111.31Z"/><path class="cls-4" d="M686.31,1120.64a5.66,5.66,0,1,0,.57,8A5.66,5.66,0,0,0,686.31,1120.64Z"/><path class="cls-4" d="M710.39,1082.72a4.3,4.3,0,1,0,.43,6.06A4.29,4.29,0,0,0,710.39,1082.72Z"/><path class="cls-4" d="M622.84,818.8a4.56,4.56,0,1,0,.47,6.42A4.54,4.54,0,0,0,622.84,818.8Z"/><path class="cls-4" d="M627.1,1011.07a5.75,5.75,0,1,0,.58,8.11A5.76,5.76,0,0,0,627.1,1011.07Z"/><path class="cls-4" d="M710,1083.19a3.67,3.67,0,1,0,.38,5.18A3.67,3.67,0,0,0,710,1083.19Z"/><path class="cls-4" d="M712.07,1080.77a6.87,6.87,0,1,0,.7,9.69A6.88,6.88,0,0,0,712.07,1080.77Z"/><path class="cls-4" d="M684.62,1122.59a3.09,3.09,0,1,0,.31,4.35A3.09,3.09,0,0,0,684.62,1122.59Z"/><path class="cls-4" d="M625.49,1012.93a3.29,3.29,0,1,0,.34,4.65A3.3,3.3,0,0,0,625.49,1012.93Z"/><path class="cls-4" d="M710.91,1082.11a5.09,5.09,0,1,0,.53,7.18A5.08,5.08,0,0,0,710.91,1082.11Z"/><path class="cls-4" d="M750.67,929.17a6.11,6.11,0,1,0,.63,8.63A6.12,6.12,0,0,0,750.67,929.17Z"/><path class="cls-4" d="M738.9,688.44a3.93,3.93,0,1,0,.4,5.55A3.92,3.92,0,0,0,738.9,688.44Z"/><path class="cls-4" d="M623.71,817.8a5.88,5.88,0,1,0,.59,8.29A5.87,5.87,0,0,0,623.71,817.8Z"/><path class="cls-4" d="M748.5,931.69a2.78,2.78,0,1,0,.29,3.93A2.77,2.77,0,0,0,748.5,931.69Z"/><path class="cls-4" d="M749.26,930.82a3.95,3.95,0,1,0,.4,5.56A3.95,3.95,0,0,0,749.26,930.82Z"/><path class="cls-4" d="M709.66,1083.56a3.18,3.18,0,1,0,.33,4.49A3.17,3.17,0,0,0,709.66,1083.56Z"/><path class="cls-4" d="M624,817.46a6.33,6.33,0,1,0,.64,8.92A6.33,6.33,0,0,0,624,817.46Z"/><path class="cls-4" d="M749.17,930.92a3.8,3.8,0,1,0,.39,5.36A3.79,3.79,0,0,0,749.17,930.92Z"/><path class="cls-4" d="M901.41,765.86a7,7,0,1,0,.72,9.87A7,7,0,0,0,901.41,765.86Z"/><path class="cls-4" d="M851.15,654.55a3.19,3.19,0,1,0,.33,4.5A3.18,3.18,0,0,0,851.15,654.55Z"/><path class="cls-4" d="M739.44,687.83a4.74,4.74,0,1,0,.48,6.68A4.74,4.74,0,0,0,739.44,687.83Z"/><path class="cls-4" d="M899.49,768.1a4.06,4.06,0,1,0,.42,5.71A4.06,4.06,0,0,0,899.49,768.1Z"/><path class="cls-4" d="M901,766.34a6.37,6.37,0,1,0,.65,9A6.35,6.35,0,0,0,901,766.34Z"/><path class="cls-4" d="M747.67,932.65a1.52,1.52,0,1,0-2,2.3,1.52,1.52,0,1,0,2-2.3Z"/><path class="cls-4" d="M740.56,686.52a6.46,6.46,0,1,0,.66,9.12A6.46,6.46,0,0,0,740.56,686.52Z"/><path class="cls-4" d="M898.69,769a2.84,2.84,0,1,0,.29,4A2.83,2.83,0,0,0,898.69,769Z"/><path class="cls-4" d="M971,680a4.23,4.23,0,1,0,.44,6A4.21,4.21,0,0,0,971,680Z"/><path class="cls-4" d="M891.73,522.52a3.88,3.88,0,1,0,.39,5.47A3.9,3.9,0,0,0,891.73,522.52Z"/><path class="cls-4" d="M853.75,651.53a7.18,7.18,0,1,0,.74,10.12A7.18,7.18,0,0,0,853.75,651.53Z"/><path class="cls-4" d="M970.06,681a2.85,2.85,0,1,0,.29,4A2.86,2.86,0,0,0,970.06,681Z"/><path class="cls-4" d="M970.49,680.51a3.51,3.51,0,1,0,.37,5A3.5,3.5,0,0,0,970.49,680.51Z"/><path class="cls-4" d="M899.71,767.82a4.41,4.41,0,1,0,.46,6.22A4.39,4.39,0,0,0,899.71,767.82Z"/><path class="cls-4" d="M851.58,654.06a3.84,3.84,0,1,0,.39,5.41A3.85,3.85,0,0,0,851.58,654.06Z"/><path class="cls-4" d="M971.1,679.81a4.44,4.44,0,1,0,.46,6.26A4.44,4.44,0,0,0,971.1,679.81Z"/><path class="cls-4" d="M945,640.61a4,4,0,1,0,.42,5.65A4,4,0,0,0,945,640.61Z"/><path class="cls-4" d="M995.54,448.29a3.7,3.7,0,1,0,.37,5.22A3.71,3.71,0,0,0,995.54,448.29Z"/><path class="cls-4" d="M891.48,522.8a3.51,3.51,0,1,0,.37,5A3.5,3.5,0,0,0,891.48,522.8Z"/><path class="cls-4" d="M944.55,641.19a3.24,3.24,0,1,0,.33,4.56A3.23,3.23,0,0,0,944.55,641.19Z"/><path class="cls-4" d="M944.5,641.24a3.17,3.17,0,1,0,.33,4.48A3.16,3.16,0,0,0,944.5,641.24Z"/><path class="cls-4" d="M970.26,680.79a3.14,3.14,0,1,0-4.11,4.75,3.14,3.14,0,0,0,4.11-4.75Z"/><path class="cls-4" d="M893.41,520.56a6.47,6.47,0,1,0,.67,9.13A6.47,6.47,0,0,0,893.41,520.56Z"/><path class="cls-4" d="M943.75,642.11A2,2,0,1,0,944,645,2,2,0,0,0,943.75,642.11Z"/><path class="cls-4" d="M1122.4,602.27a6.18,6.18,0,1,0,.65,8.72A6.17,6.17,0,0,0,1122.4,602.27Z"/><path class="cls-4" d="M1215,289.27a5.8,5.8,0,1,0,.6,8.18A5.79,5.79,0,0,0,1215,289.27Z"/><path class="cls-4" d="M998.88,444.42a8.82,8.82,0,1,0,.91,12.43A8.81,8.81,0,0,0,998.88,444.42Z"/><path class="cls-4" d="M1120.81,604.1a3.75,3.75,0,1,0,.39,5.3A3.74,3.74,0,0,0,1120.81,604.1Z"/><path class="cls-4" d="M1123.43,601.08a7.75,7.75,0,1,0,.8,10.93A7.76,7.76,0,0,0,1123.43,601.08Z"/><path class="cls-4" d="M944.67,641.05a3.43,3.43,0,1,0,.35,4.83A3.44,3.44,0,0,0,944.67,641.05Z"/><path class="cls-4" d="M995,448.9a2.9,2.9,0,1,0,.29,4.08A2.9,2.9,0,0,0,995,448.9Z"/><path class="cls-4" d="M1121.35,603.49a4.57,4.57,0,1,0,.47,6.43A4.57,4.57,0,0,0,1121.35,603.49Z"/><path class="cls-4" d="M1167.68,453.06a4.65,4.65,0,1,0,.48,6.56A4.65,4.65,0,0,0,1167.68,453.06Z"/><path class="cls-4" d="M1242.23,230.32a3.11,3.11,0,1,0,.32,4.39A3.11,3.11,0,0,0,1242.23,230.32Z"/><path class="cls-4" d="M1213.93,290.54a4.12,4.12,0,1,0,.41,5.81A4.11,4.11,0,0,0,1213.93,290.54Z"/><path class="cls-4" d="M1167.19,453.63a3.89,3.89,0,1,0,.39,5.49A3.91,3.91,0,0,0,1167.19,453.63Z"/><path class="cls-4" d="M1166.3,454.66a2.53,2.53,0,1,0,.25,3.57A2.53,2.53,0,0,0,1166.3,454.66Z"/><path class="cls-4" d="M1120,605.05a2.5,2.5,0,1,0,.25,3.53A2.51,2.51,0,0,0,1120,605.05Z"/><path class="cls-4" d="M1214.56,289.81a5.08,5.08,0,1,0,.52,7.17A5.08,5.08,0,0,0,1214.56,289.81Z"/><path class="cls-4" d="M1166.89,454a3.45,3.45,0,1,0,.35,4.86A3.46,3.46,0,0,0,1166.89,454Z"/><path class="cls-4" d="M1297.18,157.56a8.43,8.43,0,1,0,.86,11.9A8.44,8.44,0,0,0,1297.18,157.56Z"/><path class="cls-4" d="M1242,230.63a2.7,2.7,0,1,0,.27,3.81A2.71,2.71,0,0,0,1242,230.63Z"/><path class="cls-4" d="M1294.1,161.15a3.7,3.7,0,1,0,.37,5.21A3.7,3.7,0,0,0,1294.1,161.15Z"/><path class="cls-4" d="M1293.49,161.83a2.79,2.79,0,1,0-3.64,4.22,2.79,2.79,0,0,0,3.64-4.22Z"/><path class="cls-4" d="M1167.2,453.62a3.9,3.9,0,1,0,.39,5.5A3.91,3.91,0,0,0,1167.2,453.62Z"/><path class="cls-4" d="M1242.59,229.92a3.65,3.65,0,1,0,.36,5.14A3.67,3.67,0,0,0,1242.59,229.92Z"/><path class="cls-4" d="M1293.53,161.8a2.84,2.84,0,1,0,.29,4A2.83,2.83,0,0,0,1293.53,161.8Z"/><path class="cls-4" d="M1228.93,166.84a4.26,4.26,0,1,0,.43,6A4.26,4.26,0,0,0,1228.93,166.84Z"/><path class="cls-4" d="M1228.35,167.5a3.38,3.38,0,1,0,.34,4.77A3.37,3.37,0,0,0,1228.35,167.5Z"/><path class="cls-4" d="M1228.2,167.67a3.15,3.15,0,1,0,.33,4.45A3.14,3.14,0,0,0,1228.2,167.67Z"/><path class="cls-4" d="M1294.5,160.67a4.32,4.32,0,1,0,.43,6.1A4.34,4.34,0,0,0,1294.5,160.67Z"/><path class="cls-4" d="M1230.91,164.54a7.3,7.3,0,1,0,.75,10.3A7.29,7.29,0,0,0,1230.91,164.54Z"/><path class="cls-4" d="M1447.47,194.75a1.82,1.82,0,1,0,.19,2.57A1.82,1.82,0,0,0,1447.47,194.75Z"/><path class="cls-4" d="M1451.76,189.78a8.38,8.38,0,1,0,.86,11.82A8.39,8.39,0,0,0,1451.76,189.78Z"/><path class="cls-4" d="M1449.16,192.8a4.41,4.41,0,1,0,.45,6.21A4.4,4.4,0,0,0,1449.16,192.8Z"/><path class="cls-4" d="M1229.25,166.46a4.76,4.76,0,1,0,.49,6.71A4.75,4.75,0,0,0,1229.25,166.46Z"/><path class="cls-4" d="M1448.91,193.08a4,4,0,1,0,.42,5.67A4,4,0,0,0,1448.91,193.08Z"/><path class="cls-4" d="M1449.52,192.37a5,5,0,1,0,.51,7A5,5,0,0,0,1449.52,192.37Z"/><path class="cls-4" d="M246.9,1160.3a2.39,2.39,0,0,0-3.35.24,2.37,2.37,0,1,0,3.35-.24Z"/><path class="cls-4" d="M314.21,1161.71a5.41,5.41,0,1,0,.56,7.63A5.4,5.4,0,0,0,314.21,1161.71Z"/><path class="cls-4" d="M247.5,1159.6a3.3,3.3,0,1,0,.34,4.66A3.29,3.29,0,0,0,247.5,1159.6Z"/><path class="cls-4" d="M313.69,1162.3a4.62,4.62,0,1,0,.48,6.52A4.61,4.61,0,0,0,313.69,1162.3Z"/><path class="cls-4" d="M314.76,1161.06a6.26,6.26,0,1,0,.64,8.83A6.26,6.26,0,0,0,314.76,1161.06Z"/><path class="cls-4" d="M248.78,1158.12a5.25,5.25,0,1,0,.54,7.42A5.26,5.26,0,0,0,248.78,1158.12Z"/><path class="cls-4" d="M314.37,1161.52a5.65,5.65,0,1,0,.58,8A5.65,5.65,0,0,0,314.37,1161.52Z"/><path class="cls-4" d="M368.66,1272.16a2.63,2.63,0,1,0,.26,3.7A2.62,2.62,0,0,0,368.66,1272.16Z"/><path class="cls-4" d="M352.93,1006.15a2.59,2.59,0,1,0,.26,3.64A2.58,2.58,0,0,0,352.93,1006.15Z"/><path class="cls-4" d="M368.26,1272.61a2,2,0,1,0,.21,2.85A2,2,0,0,0,368.26,1272.61Z"/><path class="cls-4" d="M370.31,1270.24a5.16,5.16,0,1,0,.53,7.28A5.14,5.14,0,0,0,370.31,1270.24Z"/><path class="cls-4" d="M315.21,1160.54a6.95,6.95,0,1,0,.72,9.8A6.95,6.95,0,0,0,315.21,1160.54Z"/><path class="cls-4" d="M369.4,1271.29a3.76,3.76,0,1,0,.39,5.31A3.76,3.76,0,0,0,369.4,1271.29Z"/><path class="cls-4" d="M527.25,1110.34a4.65,4.65,0,1,0,.48,6.57A4.66,4.66,0,0,0,527.25,1110.34Z"/><path class="cls-4" d="M485.87,907.93a4.09,4.09,0,1,0,.42,5.77A4.1,4.1,0,0,0,485.87,907.93Z"/><path class="cls-4" d="M353.45,1005.54a3.39,3.39,0,1,0,.35,4.77A3.39,3.39,0,0,0,353.45,1005.54Z"/><path class="cls-4" d="M526.23,1111.52a3.1,3.1,0,1,0,.32,4.37A3.11,3.11,0,0,0,526.23,1111.52Z"/><path class="cls-4" d="M526,1111.81a2.72,2.72,0,1,0,.28,3.83A2.71,2.71,0,0,0,526,1111.81Z"/><path class="cls-4" d="M368.25,1272.61a2,2,0,0,0-2.62,3,2,2,0,0,0,2.83-.21A2,2,0,0,0,368.25,1272.61Z"/><path class="cls-4" d="M354.12,1004.77a4.41,4.41,0,1,0,.45,6.22A4.4,4.4,0,0,0,354.12,1004.77Z"/><path class="cls-4" d="M525.8,1112a2.44,2.44,0,1,0,.25,3.44A2.46,2.46,0,0,0,525.8,1112Z"/><path class="cls-4" d="M625.25,1013.21a2.93,2.93,0,1,0,.3,4.12A2.92,2.92,0,0,0,625.25,1013.21Z"/><path class="cls-4" d="M405.07,830a3.19,3.19,0,1,0,.32,4.49A3.18,3.18,0,0,0,405.07,830Z"/><path class="cls-4" d="M486,907.73a4.35,4.35,0,1,0,.44,6.14A4.34,4.34,0,0,0,486,907.73Z"/><path class="cls-4" d="M624.4,1014.19a1.63,1.63,0,1,0,.17,2.3A1.64,1.64,0,0,0,624.4,1014.19Z"/><path class="cls-4" d="M624.8,1013.74a2.23,2.23,0,1,0,.22,3.14A2.22,2.22,0,0,0,624.8,1013.74Z"/><path class="cls-4" d="M526.83,1110.82a4,4,0,1,0,.41,5.68A4,4,0,0,0,526.83,1110.82Z"/><path class="cls-4" d="M484.69,909.29a2.29,2.29,0,1,0,.24,3.23A2.3,2.3,0,0,0,484.69,909.29Z"/><path class="cls-4" d="M625.63,1012.78a3.5,3.5,0,1,0,.35,4.93A3.51,3.51,0,0,0,625.63,1012.78Z"/><path class="cls-4" d="M621.37,820.49a2.31,2.31,0,1,0,.23,3.27A2.33,2.33,0,0,0,621.37,820.49Z"/><path class="cls-4" d="M578.12,562a7.15,7.15,0,1,0,.74,10.08A7.13,7.13,0,0,0,578.12,562Z"/><path class="cls-4" d="M405.42,829.61a3.74,3.74,0,1,0,.39,5.27A3.73,3.73,0,0,0,405.42,829.61Z"/><path class="cls-4" d="M622.72,818.93a4.37,4.37,0,1,0,.45,6.17A4.36,4.36,0,0,0,622.72,818.93Z"/><path class="cls-4" d="M621.69,820.13a2.79,2.79,0,1,0-3.66,4.22,2.79,2.79,0,0,0,3.66-4.22Z"/><path class="cls-4" d="M626.82,1011.39a5.33,5.33,0,1,0,.54,7.52A5.34,5.34,0,0,0,626.82,1011.39Z"/><path class="cls-4" d="M405.83,829.16a4.35,4.35,0,1,0,.44,6.12A4.33,4.33,0,0,0,405.83,829.16Z"/><path class="cls-4" d="M622.16,819.59a3.51,3.51,0,1,0,.35,4.95A3.51,3.51,0,0,0,622.16,819.59Z"/><path class="cls-4" d="M738.48,688.94a3.28,3.28,0,1,0,.33,4.62A3.28,3.28,0,0,0,738.48,688.94Z"/><path class="cls-4" d="M649,544.57a4.23,4.23,0,1,0,.44,6A4.22,4.22,0,0,0,649,544.57Z"/><path class="cls-4" d="M575.8,564.65a3.59,3.59,0,1,0,.37,5.07A3.58,3.58,0,0,0,575.8,564.65Z"/><path class="cls-4" d="M738,689.49a2.54,2.54,0,1,0,.26,3.59A2.55,2.55,0,0,0,738,689.49Z"/><path class="cls-4" d="M739.58,687.65a5,5,0,1,0,.51,7A5,5,0,0,0,739.58,687.65Z"/><path class="cls-4" d="M622.65,819a4.26,4.26,0,1,0,.44,6A4.27,4.27,0,0,0,622.65,819Z"/><path class="cls-4" d="M575.19,565.34a2.67,2.67,0,1,0,.28,3.77A2.67,2.67,0,0,0,575.19,565.34Z"/><path class="cls-4" d="M738.89,688.46a3.9,3.9,0,1,0,.4,5.5A3.9,3.9,0,0,0,738.89,688.46Z"/><path class="cls-4" d="M852.86,652.57a5.8,5.8,0,1,0,.59,8.18A5.8,5.8,0,0,0,852.86,652.57Z"/><path class="cls-4" d="M714.85,527.46a6,6,0,1,0,.62,8.53A6,6,0,0,0,714.85,527.46Z"/><path class="cls-4" d="M647.76,546a2.38,2.38,0,1,0,.24,3.35A2.39,2.39,0,0,0,647.76,546Z"/><path class="cls-4" d="M851.12,654.59a3.14,3.14,0,1,0,.32,4.43A3.12,3.12,0,0,0,851.12,654.59Z"/><path class="cls-4" d="M851.35,654.31a3.5,3.5,0,1,0,.36,4.94A3.5,3.5,0,0,0,851.35,654.31Z"/><path class="cls-4" d="M738,689.46a2.58,2.58,0,1,0,.26,3.64A2.58,2.58,0,0,0,738,689.46Z"/><path class="cls-4" d="M650.12,543.24a6,6,0,1,0,.61,8.44A6,6,0,0,0,650.12,543.24Z"/><path class="cls-4" d="M852.73,652.74a5.59,5.59,0,1,0,.57,7.88A5.59,5.59,0,0,0,852.73,652.74Z"/><path class="cls-4" d="M890.64,523.77a2.23,2.23,0,0,0-2.92,3.37,2.23,2.23,0,1,0,2.92-3.37Z"/><path class="cls-4" d="M888.43,273.21a3.64,3.64,0,1,0,.37,5.14A3.65,3.65,0,0,0,888.43,273.21Z"/><path class="cls-4" d="M712.91,529.7a3.08,3.08,0,1,0,.32,4.35A3.08,3.08,0,0,0,712.91,529.7Z"/><path class="cls-4" d="M891.6,522.66a3.7,3.7,0,1,0,.39,5.23A3.7,3.7,0,0,0,891.6,522.66Z"/><path class="cls-4" d="M892.08,522.11a4.42,4.42,0,1,0,.46,6.24A4.42,4.42,0,0,0,892.08,522.11Z"/><path class="cls-4" d="M850.58,655.21a2.31,2.31,0,1,0,.24,3.26A2.31,2.31,0,0,0,850.58,655.21Z"/><path class="cls-4" d="M712.75,529.88a2.84,2.84,0,1,0,.29,4A2.84,2.84,0,0,0,712.75,529.88Z"/><path class="cls-4" d="M891.58,522.71a3.65,3.65,0,1,0,.36,5.14A3.65,3.65,0,0,0,891.58,522.71Z"/><path class="cls-4" d="M996.14,447.6a4.61,4.61,0,1,0,.46,6.5A4.63,4.63,0,0,0,996.14,447.6Z"/><path class="cls-4" d="M834.54,261.09a3.57,3.57,0,1,0,.37,5A3.55,3.55,0,0,0,834.54,261.09Z"/><path class="cls-4" d="M888.65,273a4,4,0,1,0,.41,5.63A4,4,0,0,0,888.65,273Z"/><path class="cls-4" d="M996.8,446.83a5.63,5.63,0,1,0,.57,7.95A5.62,5.62,0,0,0,996.8,446.83Z"/><path class="cls-4" d="M998.93,444.37a8.88,8.88,0,1,0,.9,12.52A8.89,8.89,0,0,0,998.93,444.37Z"/><path class="cls-4" d="M894.53,519.27a8.17,8.17,0,1,0,.84,11.53A8.18,8.18,0,0,0,894.53,519.27Z"/><path class="cls-4" d="M890.15,271.21a6.29,6.29,0,1,0,.65,8.87A6.29,6.29,0,0,0,890.15,271.21Z"/><path class="cls-4" d="M996.92,446.7a5.8,5.8,0,1,0,.59,8.19A5.82,5.82,0,0,0,996.92,446.7Z"/><path class="cls-4" d="M1213.91,290.55a4.1,4.1,0,1,0,.43,5.78A4.11,4.11,0,0,0,1213.91,290.55Z"/><path class="cls-4" d="M953.87,229.89a3,3,0,1,0,.31,4.28A3,3,0,0,0,953.87,229.89Z"/><path class="cls-4" d="M834.67,260.94a3.76,3.76,0,1,0,.39,5.31A3.75,3.75,0,0,0,834.67,260.94Z"/><path class="cls-4" d="M1213.51,291a3.5,3.5,0,1,0,.37,4.94A3.49,3.49,0,0,0,1213.51,291Z"/><path class="cls-4" d="M1213.35,291.21a3.24,3.24,0,1,0,.34,4.57A3.22,3.22,0,0,0,1213.35,291.21Z"/><path class="cls-4" d="M995.6,448.21a3.8,3.8,0,1,0,.4,5.36A3.79,3.79,0,0,0,995.6,448.21Z"/><path class="cls-4" d="M834.67,260.94a3.76,3.76,0,1,0,.38,5.31A3.75,3.75,0,0,0,834.67,260.94Z"/><path class="cls-4" d="M1212.79,291.85a2.38,2.38,0,0,0-3.37.24,2.39,2.39,0,1,0,3.62,3.12A2.37,2.37,0,0,0,1212.79,291.85Z"/><path class="cls-4" d="M1241.51,231.16a2,2,0,1,0,.21,2.83A2,2,0,0,0,1241.51,231.16Z"/><path class="cls-4" d="M954.36,229.32a3.78,3.78,0,1,0,.38,5.34A3.78,3.78,0,0,0,954.36,229.32Z"/><path class="cls-4" d="M1244.41,227.8a6.45,6.45,0,1,0,.67,9.09A6.45,6.45,0,0,0,1244.41,227.8Z"/><path class="cls-4" d="M1245.18,226.91a7.61,7.61,0,1,0,.78,10.75A7.62,7.62,0,0,0,1245.18,226.91Z"/><path class="cls-4" d="M1212.87,291.76a2.51,2.51,0,1,0,.26,3.53A2.5,2.5,0,0,0,1212.87,291.76Z"/><path class="cls-4" d="M954.07,229.65a3.35,3.35,0,1,0,.36,4.72A3.35,3.35,0,0,0,954.07,229.65Z"/><path class="cls-4" d="M1241.74,230.89a2.37,2.37,0,0,0-3.1,3.58,2.39,2.39,0,0,0,3.35-.24A2.36,2.36,0,0,0,1241.74,230.89Z"/><path class="cls-4" d="M1245.38,226.69a7.92,7.92,0,1,0,.81,11.17A7.91,7.91,0,0,0,1245.38,226.69Z"/><path class="cls-4" d="M248.12,1158.89a4.24,4.24,0,1,0,.43,6A4.25,4.25,0,0,0,248.12,1158.89Z"/><path class="cls-4" d="M248.05,1159a4.13,4.13,0,1,0,.42,5.81A4.12,4.12,0,0,0,248.05,1159Z"/><path class="cls-4" d="M246.68,1160.55a2,2,0,1,0,.21,2.88A2,2,0,0,0,246.68,1160.55Z"/><path class="cls-4" d="M248.08,1158.94a4.18,4.18,0,1,0,.43,5.9A4.17,4.17,0,0,0,248.08,1158.94Z"/><path class="cls-4" d="M191.65,1151.17a3.12,3.12,0,1,1,.42,6.08Z"/><path class="cls-4" d="M247.88,1159.17a3.87,3.87,0,1,0,.39,5.45A3.87,3.87,0,0,0,247.88,1159.17Z"/><path class="cls-4" d="M352.44,1006.7a1.85,1.85,0,1,0,.2,2.61A1.84,1.84,0,0,0,352.44,1006.7Z"/><path class="cls-4" d="M382.24,935.3a2.21,2.21,0,1,0,.22,3.12A2.22,2.22,0,0,0,382.24,935.3Z"/><path class="cls-4" d="M191.64,1150.88a3.41,3.41,0,1,1,.45,6.66Z"/><path class="cls-4" d="M353.09,1006a2.83,2.83,0,1,0,.29,4A2.83,2.83,0,0,0,353.09,1006Z"/><path class="cls-4" d="M354.35,1004.49a4.77,4.77,0,1,0,.49,6.73A4.78,4.78,0,0,0,354.35,1004.49Z"/><path class="cls-4" d="M354.42,1004.42a4.87,4.87,0,1,0,.5,6.86A4.85,4.85,0,0,0,354.42,1004.42Z"/><path class="cls-4" d="M485.05,908.88a2.83,2.83,0,1,0,.29,4A2.83,2.83,0,0,0,485.05,908.88Z"/><path class="cls-4" d="M387.32,925.57a6.3,6.3,0,1,0,.64,8.88A6.29,6.29,0,0,0,387.32,925.57Z"/><path class="cls-4" d="M385.72,931.28a7.52,7.52,0,1,0,.77,10.61A7.51,7.51,0,0,0,385.72,931.28Z"/><path class="cls-4" d="M486.12,907.65a4.46,4.46,0,1,0,.45,6.29A4.45,4.45,0,0,0,486.12,907.65Z"/><path class="cls-4" d="M488.16,905.28a7.59,7.59,0,1,0,.78,10.7A7.59,7.59,0,0,0,488.16,905.28Z"/><path class="cls-4" d="M352.59,1006.53a2.08,2.08,0,0,0-2.92.22,2.07,2.07,0,0,0,3.13,2.71A2.08,2.08,0,0,0,352.59,1006.53Z"/><path class="cls-4" d="M382.51,935a2.62,2.62,0,1,0,.27,3.7A2.6,2.6,0,0,0,382.51,935Z"/><path class="cls-4" d="M486.73,906.93a5.4,5.4,0,1,0,.56,7.63A5.4,5.4,0,0,0,486.73,906.93Z"/><path class="cls-4" d="M406.6,828.25a5.54,5.54,0,1,0,.57,7.81A5.54,5.54,0,0,0,406.6,828.25Z"/><path class="cls-4" d="M395,773.57a4.38,4.38,0,1,0,.44,6.19A4.4,4.4,0,0,0,395,773.57Z"/><path class="cls-4" d="M386.82,926.14a5.54,5.54,0,1,0,.57,7.82A5.55,5.55,0,0,0,386.82,926.14Z"/><path class="cls-4" d="M405.54,829.48A3.91,3.91,0,1,0,406,835,3.92,3.92,0,0,0,405.54,829.48Z"/><path class="cls-4" d="M405.68,829.33a4.12,4.12,0,1,0,.42,5.81A4.12,4.12,0,0,0,405.68,829.33Z"/><path class="cls-4" d="M486,907.82a4.24,4.24,0,1,0,.42,6A4.25,4.25,0,0,0,486,907.82Z"/><path class="cls-4" d="M385.57,927.58a3.64,3.64,0,1,0,.38,5.14A3.63,3.63,0,0,0,385.57,927.58Z"/><path class="cls-4" d="M404.42,830.78a2.19,2.19,0,1,0,.22,3.1A2.2,2.2,0,0,0,404.42,830.78Z"/><path class="cls-4" d="M575.28,565.24a2.81,2.81,0,1,0,.29,4A2.81,2.81,0,0,0,575.28,565.24Z"/><path class="cls-4" d="M647.56,519.09a3.84,3.84,0,1,0,.39,5.42A3.85,3.85,0,0,0,647.56,519.09Z"/><path class="cls-4" d="M394.86,773.67a4.25,4.25,0,1,0,.43,6A4.27,4.27,0,0,0,394.86,773.67Z"/><path class="cls-4" d="M576.52,563.81a4.7,4.7,0,1,0,.48,6.63A4.71,4.71,0,0,0,576.52,563.81Z"/><path class="cls-4" d="M575.94,564.49a3.81,3.81,0,1,0,.38,5.37A3.81,3.81,0,0,0,575.94,564.49Z"/><path class="cls-4" d="M407.39,827.34a6.74,6.74,0,1,0,.69,9.51A6.73,6.73,0,0,0,407.39,827.34Z"/><path class="cls-4" d="M394.21,774.43a3.26,3.26,0,1,0,.34,4.59A3.27,3.27,0,0,0,394.21,774.43Z"/><path class="cls-4" d="M575.47,565a3.09,3.09,0,1,0,.31,4.36A3.1,3.1,0,0,0,575.47,565Z"/><path class="cls-4" d="M649,544.54a4.27,4.27,0,1,0,.43,6A4.27,4.27,0,0,0,649,544.54Z"/><path class="cls-4" d="M638.06,454.06a2.92,2.92,0,1,0,.3,4.11A2.92,2.92,0,0,0,638.06,454.06Z"/><path class="cls-4" d="M647.13,519.58a3.19,3.19,0,1,0,.33,4.51A3.2,3.2,0,0,0,647.13,519.58Z"/><path class="cls-4" d="M649.58,543.86a5.16,5.16,0,1,0,.53,7.28A5.17,5.17,0,0,0,649.58,543.86Z"/><path class="cls-4" d="M648.47,545.15a3.46,3.46,0,1,0,.35,4.88A3.47,3.47,0,0,0,648.47,545.15Z"/><path class="cls-4" d="M575.44,565.07a3,3,0,1,0,.3,4.28A3,3,0,0,0,575.44,565.07Z"/><path class="cls-4" d="M648.08,518.49a4.64,4.64,0,1,0,.47,6.54A4.64,4.64,0,0,0,648.08,518.49Z"/><path class="cls-4" d="M649.42,544a4.93,4.93,0,1,0,.51,7A4.92,4.92,0,0,0,649.42,544Z"/><path class="cls-4" d="M714,528.49a4.68,4.68,0,1,0,.47,6.6A4.69,4.69,0,0,0,714,528.49Z"/><path class="cls-4" d="M796.6,451.07a5.46,5.46,0,1,0,.55,7.69A5.44,5.44,0,0,0,796.6,451.07Z"/><path class="cls-4" d="M638.88,453.1a4.18,4.18,0,1,0,.44,5.9A4.18,4.18,0,0,0,638.88,453.1Z"/><path class="cls-4" d="M713.43,529.09a3.89,3.89,0,1,0,.4,5.48A3.88,3.88,0,0,0,713.43,529.09Z"/><path class="cls-4" d="M712.93,529.68a3.11,3.11,0,1,0,.31,4.38A3.13,3.13,0,0,0,712.93,529.68Z"/><path class="cls-4" d="M647.42,546.35a1.87,1.87,0,1,0,.2,2.64A1.86,1.86,0,0,0,647.42,546.35Z"/><path class="cls-4" d="M640.63,451.09a6.85,6.85,0,1,0,.7,9.65A6.84,6.84,0,0,0,640.63,451.09Z"/><path class="cls-4" d="M712.46,530.22a2.4,2.4,0,1,0,.25,3.38A2.39,2.39,0,0,0,712.46,530.22Z"/><path class="cls-4" d="M888.34,273.31a3.51,3.51,0,1,0-4.59,5.31,3.51,3.51,0,0,0,4.59-5.31Z"/><path class="cls-4" d="M731.21,287.6a2.16,2.16,0,1,0,.22,3A2.17,2.17,0,0,0,731.21,287.6Z"/><path class="cls-4" d="M797,450.58a6.09,6.09,0,1,0,.62,8.6A6.1,6.1,0,0,0,797,450.58Z"/><path class="cls-4" d="M887.85,273.89a2.76,2.76,0,1,0,.28,3.89A2.76,2.76,0,0,0,887.85,273.89Z"/><path class="cls-4" d="M888.46,273.17a3.69,3.69,0,1,0,.37,5.21A3.7,3.7,0,0,0,888.46,273.17Z"/><path class="cls-4" d="M713.88,528.58a4.56,4.56,0,1,0,.46,6.43A4.56,4.56,0,0,0,713.88,528.58Z"/><path class="cls-4" d="M798.63,448.73a8.55,8.55,0,1,0,.87,12.06A8.56,8.56,0,0,0,798.63,448.73Z"/><path class="cls-4" d="M889.44,272.05a5.19,5.19,0,1,0,.54,7.32A5.18,5.18,0,0,0,889.44,272.05Z"/><path class="cls-4" d="M833.86,261.87a2.52,2.52,0,1,0,.26,3.56A2.52,2.52,0,0,0,833.86,261.87Z"/><path class="cls-4" d="M950.27,276.67a4.75,4.75,0,1,0,.49,6.71A4.76,4.76,0,0,0,950.27,276.67Z"/><path class="cls-4" d="M734.51,283.79a7.21,7.21,0,1,0,.73,10.16A7.21,7.21,0,0,0,734.51,283.79Z"/><path class="cls-4" d="M834.44,261.19a3.42,3.42,0,1,0,.35,4.84A3.42,3.42,0,0,0,834.44,261.19Z"/><path class="cls-4" d="M833.47,262.33a1.92,1.92,0,1,0,.19,2.71A1.93,1.93,0,0,0,833.47,262.33Z"/><path class="cls-4" d="M888.28,273.38a3.42,3.42,0,1,0,.36,4.83A3.42,3.42,0,0,0,888.28,273.38Z"/><path class="cls-4" d="M732,286.74a3.3,3.3,0,1,0,.34,4.65A3.28,3.28,0,0,0,732,286.74Z"/><path class="cls-4" d="M834.66,261a3.75,3.75,0,1,0,.38,5.29A3.74,3.74,0,0,0,834.66,261Z"/><path class="cls-4" d="M954.13,229.59a3.43,3.43,0,1,0,.35,4.84A3.42,3.42,0,0,0,954.13,229.59Z"/><path class="cls-4" d="M950.85,276a5.63,5.63,0,1,0,.57,7.94A5.63,5.63,0,0,0,950.85,276Z"/><path class="cls-4" d="M954,229.76a3.2,3.2,0,1,0,.32,4.51A3.19,3.19,0,0,0,954,229.76Z"/><path class="cls-4" d="M954,229.77a3.2,3.2,0,1,0,.32,4.5A3.21,3.21,0,0,0,954,229.77Z"/><path class="cls-4" d="M835.78,259.65a5.46,5.46,0,1,0,.56,7.71A5.46,5.46,0,0,0,835.78,259.65Z"/><path class="cls-4" d="M948.55,278.67a2.12,2.12,0,1,0,.22,3A2.12,2.12,0,0,0,948.55,278.67Z"/><path class="cls-4" d="M954.43,229.25a3.88,3.88,0,1,0,.38,5.47A3.89,3.89,0,0,0,954.43,229.25Z"/><path class="cls-4" d="M954.19,229.51a3.53,3.53,0,1,0,.38,5A3.54,3.54,0,0,0,954.19,229.51Z"/><path class="cls-4" d="M191.59,1150.27a4,4,0,1,1,.54,7.89Z"/><path class="cls-4" d="M271,860.18a4.51,4.51,0,1,0,.47,6.35A4.49,4.49,0,0,0,271,860.18Z"/><path class="cls-4" d="M191.34,1146.61a7.66,7.66,0,1,1,1,15.22Z"/><path class="cls-4" d="M191.59,1150.24a4.05,4.05,0,1,1,.54,8Z"/><path class="cls-4" d="M383.08,934.34a3.48,3.48,0,1,0,.36,4.91A3.48,3.48,0,0,0,383.08,934.34Z"/><path class="cls-4" d="M322.1,804.3a5.29,5.29,0,1,0,.55,7.45A5.29,5.29,0,0,0,322.1,804.3Z"/><path class="cls-4" d="M270.25,861.1a3.29,3.29,0,1,0,.34,4.63A3.29,3.29,0,0,0,270.25,861.1Z"/><path class="cls-4" d="M384.94,932.17a6.35,6.35,0,1,0,.65,9A6.33,6.33,0,0,0,384.94,932.17Z"/><path class="cls-4" d="M385.61,931.41a7.36,7.36,0,1,0,.76,10.38A7.35,7.35,0,0,0,385.61,931.41Z"/><path class="cls-4" d="M191.62,1150.69a3.59,3.59,0,1,1,.48,7Z"/><path class="cls-4" d="M270.55,860.75a3.74,3.74,0,1,0,.37,5.27A3.74,3.74,0,0,0,270.55,860.75Z"/><path class="cls-4" d="M383.4,934a4,4,0,1,0,.41,5.62A4,4,0,0,0,383.4,934Z"/><path class="cls-4" d="M387.67,925.16a6.84,6.84,0,1,0,.7,9.65A6.85,6.85,0,0,0,387.67,925.16Z"/><path class="cls-4" d="M397,675.23a4.92,4.92,0,1,0,.5,6.93A4.91,4.91,0,0,0,397,675.23Z"/><path class="cls-4" d="M321.44,805.07a4.27,4.27,0,1,0,.43,6A4.27,4.27,0,0,0,321.44,805.07Z"/><path class="cls-4" d="M387.25,925.66a6.19,6.19,0,1,0,.63,8.72A6.19,6.19,0,0,0,387.25,925.66Z"/><path class="cls-4" d="M384.68,928.62a2.27,2.27,0,1,0-3,3.43,2.27,2.27,0,0,0,3-3.43Z"/><path class="cls-4" d="M382.82,934.64a3.09,3.09,0,1,0,.31,4.35A3.11,3.11,0,0,0,382.82,934.64Z"/><path class="cls-4" d="M321.76,804.7a4.76,4.76,0,1,0,.49,6.71A4.75,4.75,0,0,0,321.76,804.7Z"/><path class="cls-4" d="M386.4,926.63a4.9,4.9,0,1,0,.51,6.91A4.89,4.89,0,0,0,386.4,926.63Z"/><path class="cls-4" d="M393.5,775.25a2.17,2.17,0,1,0,.21,3.06A2.17,2.17,0,0,0,393.5,775.25Z"/><path class="cls-4" d="M449.54,665a4.27,4.27,0,1,0,.44,6A4.25,4.25,0,0,0,449.54,665Z"/><path class="cls-4" d="M395.77,676.68a3,3,0,1,0,.31,4.23A3,3,0,0,0,395.77,676.68Z"/><path class="cls-4" d="M393.55,775.18a2.26,2.26,0,1,0,.23,3.19A2.26,2.26,0,0,0,393.55,775.18Z"/><path class="cls-4" d="M394.36,774.25a3.49,3.49,0,1,0,.36,4.92A3.48,3.48,0,0,0,394.36,774.25Z"/><path class="cls-4" d="M384.46,928.87a1.94,1.94,0,1,0,.21,2.74A1.94,1.94,0,0,0,384.46,928.87Z"/><path class="cls-4" d="M396.79,675.49a4.57,4.57,0,1,0,.47,6.44A4.57,4.57,0,0,0,396.79,675.49Z"/><path class="cls-4" d="M394.53,774.06a3.75,3.75,0,1,0,.39,5.29A3.74,3.74,0,0,0,394.53,774.06Z"/><path class="cls-4" d="M647.54,519.11a3.81,3.81,0,1,0,.39,5.38A3.81,3.81,0,0,0,647.54,519.11Z"/><path class="cls-4" d="M447.82,351.65a4.27,4.27,0,1,0,.44,6A4.27,4.27,0,0,0,447.82,351.65Z"/><path class="cls-4" d="M450.42,664a5.61,5.61,0,1,0,.58,7.91A5.6,5.6,0,0,0,450.42,664Z"/><path class="cls-4" d="M649,517.47a6,6,0,1,0,.62,8.43A6,6,0,0,0,649,517.47Z"/><path class="cls-4" d="M648.8,517.66a5.74,5.74,0,1,0,.58,8.09A5.73,5.73,0,0,0,648.8,517.66Z"/><path class="cls-4" d="M394.43,774.17a3.6,3.6,0,1,0,.37,5.07A3.59,3.59,0,0,0,394.43,774.17Z"/><path class="cls-4" d="M450.23,664.18a5.33,5.33,0,1,0,.55,7.51A5.33,5.33,0,0,0,450.23,664.18Z"/><path class="cls-4" d="M647.79,518.82a4.2,4.2,0,1,0,.43,5.93A4.2,4.2,0,0,0,647.79,518.82Z"/><path class="cls-4" d="M637.52,454.68a2.1,2.1,0,1,0,.22,3A2.1,2.1,0,0,0,637.52,454.68Z"/><path class="cls-4" d="M457.75,342.52a4.11,4.11,0,1,0,.42,5.79A4.12,4.12,0,0,0,457.75,342.52Z"/><path class="cls-4" d="M448.87,350.43a5.88,5.88,0,1,0,.6,8.29A5.88,5.88,0,0,0,448.87,350.43Z"/><path class="cls-4" d="M638.26,453.83a3.22,3.22,0,1,0,.34,4.54A3.23,3.23,0,0,0,638.26,453.83Z"/><path class="cls-4" d="M639.54,452.35a5.18,5.18,0,1,0,.52,7.3A5.19,5.19,0,0,0,639.54,452.35Z"/><path class="cls-4" d="M646.94,519.8a2.9,2.9,0,1,0,.3,4.1A2.9,2.9,0,0,0,646.94,519.8Z"/><path class="cls-4" d="M447.77,351.71a4.19,4.19,0,1,0,.43,5.91A4.2,4.2,0,0,0,447.77,351.71Z"/><path class="cls-4" d="M640,451.85a5.83,5.83,0,1,0,.61,8.23A5.83,5.83,0,0,0,640,451.85Z"/><path class="cls-4" d="M796.43,451.26a5.2,5.2,0,1,0,.54,7.34A5.2,5.2,0,0,0,796.43,451.26Z"/><path class="cls-4" d="M626.32,261.05a3.45,3.45,0,1,0,.36,4.88A3.46,3.46,0,0,0,626.32,261.05Z"/><path class="cls-4" d="M457.81,342.45a4.2,4.2,0,1,0,.43,5.93A4.21,4.21,0,0,0,457.81,342.45Z"/><path class="cls-4" d="M795.19,452.71a3.29,3.29,0,1,0,.33,4.63A3.29,3.29,0,0,0,795.19,452.71Z"/><path class="cls-4" d="M794.1,454a1.64,1.64,0,1,0,.18,2.32A1.63,1.63,0,0,0,794.1,454Z"/><path class="cls-4" d="M639.44,452.45a5,5,0,1,0,.52,7.11A5,5,0,0,0,639.44,452.45Z"/><path class="cls-4" d="M458.72,341.4a5.59,5.59,0,1,0,.58,7.89A5.58,5.58,0,0,0,458.72,341.4Z"/><path class="cls-4" d="M796.17,451.58a4.78,4.78,0,1,0,.49,6.74A4.79,4.79,0,0,0,796.17,451.58Z"/><path class="cls-4" d="M733.61,284.83a5.82,5.82,0,1,0,.59,8.22A5.84,5.84,0,0,0,733.61,284.83Z"/><path class="cls-4" d="M782.4,213.21A1.83,1.83,0,1,0,780,216a1.83,1.83,0,0,0,2.39-2.76Z"/><path class="cls-4" d="M625.82,261.63a2.69,2.69,0,1,0,.27,3.8A2.68,2.68,0,0,0,625.82,261.63Z"/><path class="cls-4" d="M734.47,283.83a7.14,7.14,0,1,0,.74,10.08A7.13,7.13,0,0,0,734.47,283.83Z"/><path class="cls-4" d="M734.45,283.85a7.11,7.11,0,1,0,.73,10A7.13,7.13,0,0,0,734.45,283.85Z"/><path class="cls-4" d="M794.39,453.62a2.09,2.09,0,0,0-2.93.22,2.07,2.07,0,1,0,2.93-.22Z"/><path class="cls-4" d="M627,260.27a4.48,4.48,0,1,0,.47,6.33A4.48,4.48,0,0,0,627,260.27Z"/><path class="cls-4" d="M732,286.67a3.39,3.39,0,1,0,.35,4.78A3.38,3.38,0,0,0,732,286.67Z"/><path class="cls-4" d="M950.76,276.1a5.5,5.5,0,1,0,.58,7.77A5.51,5.51,0,0,0,950.76,276.1Z"/><path class="cls-4" d="M784,211.33a4.31,4.31,0,1,0,.45,6.08A4.32,4.32,0,0,0,784,211.33Z"/><path class="cls-4" d="M952.15,274.49a7.63,7.63,0,1,0,.79,10.76A7.62,7.62,0,0,0,952.15,274.49Z"/><path class="cls-4" d="M949.67,277.38a3.83,3.83,0,1,0,.38,5.39A3.83,3.83,0,0,0,949.67,277.38Z"/><path class="cls-4" d="M731.61,287.14a2.78,2.78,0,1,0,.28,3.91A2.76,2.76,0,0,0,731.61,287.14Z"/><path class="cls-4" d="M783.36,212.09a3.3,3.3,0,1,0,.34,4.66A3.31,3.31,0,0,0,783.36,212.09Z"/><path class="cls-4" d="M949.58,277.47a3.69,3.69,0,1,0,.37,5.21A3.69,3.69,0,0,0,949.58,277.47Z"/><path class="cls-4" d="M949.85,277.15a4.12,4.12,0,1,0,.43,5.82A4.12,4.12,0,0,0,949.85,277.15Z"/><path class="cls-4" d="M272.52,858.47a6.76,6.76,0,1,0,.69,9.53A6.77,6.77,0,0,0,272.52,858.47Z"/><path class="cls-4" d="M206.65,688.94a3.58,3.58,0,1,0,.36,5A3.58,3.58,0,0,0,206.65,688.94Z"/><path class="cls-4" d="M271.19,860a4.73,4.73,0,1,0,.49,6.68A4.74,4.74,0,0,0,271.19,860Z"/><path class="cls-4" d="M271.37,859.8a5,5,0,1,0,.51,7.05A5,5,0,0,0,271.37,859.8Z"/><path class="cls-4" d="M270,861.37a2.93,2.93,0,1,0,.3,4.12A2.93,2.93,0,0,0,270,861.37Z"/><path class="cls-4" d="M322.1,804.31a5.27,5.27,0,1,0,.54,7.44A5.29,5.29,0,0,0,322.1,804.31Z"/><path class="cls-4" d="M282.56,620.92a2.87,2.87,0,1,0,.3,4A2.89,2.89,0,0,0,282.56,620.92Z"/><path class="cls-4" d="M206.43,689.19a3.25,3.25,0,1,0,.33,4.58A3.24,3.24,0,0,0,206.43,689.19Z"/><path class="cls-4" d="M321.17,805.38a3.86,3.86,0,1,0,.39,5.44A3.84,3.84,0,0,0,321.17,805.38Z"/><path class="cls-4" d="M321.89,804.55a5,5,0,1,0,.51,7A4.94,4.94,0,0,0,321.89,804.55Z"/><path class="cls-4" d="M272.22,858.8a6.32,6.32,0,1,0,.65,8.91A6.3,6.3,0,0,0,272.22,858.8Z"/><path class="cls-4" d="M206.83,688.73a3.86,3.86,0,1,0,.4,5.44A3.86,3.86,0,0,0,206.83,688.73Z"/><path class="cls-4" d="M323.19,803a6.95,6.95,0,1,0,.71,9.79A7,7,0,0,0,323.19,803Z"/><path class="cls-4" d="M396.21,676.17a3.67,3.67,0,1,0,.38,5.17A3.67,3.67,0,0,0,396.21,676.17Z"/><path class="cls-4" d="M238.69,570.76a4.67,4.67,0,1,0,.48,6.58A4.66,4.66,0,0,0,238.69,570.76Z"/><path class="cls-4" d="M285.46,617.57a7.29,7.29,0,1,0,.74,10.29A7.31,7.31,0,0,0,285.46,617.57Z"/><path class="cls-4" d="M395.39,677.11a2.42,2.42,0,1,0,.25,3.41A2.43,2.43,0,0,0,395.39,677.11Z"/><path class="cls-4" d="M395.86,676.58a3.13,3.13,0,1,0,.32,4.42A3.12,3.12,0,0,0,395.86,676.58Z"/><path class="cls-4" d="M321.49,805a4.35,4.35,0,1,0,.44,6.13A4.34,4.34,0,0,0,321.49,805Z"/><path class="cls-4" d="M286.41,616.47a8.76,8.76,0,1,0,.89,12.34A8.75,8.75,0,0,0,286.41,616.47Z"/><path class="cls-4" d="M397.3,674.91a5.33,5.33,0,1,0,.55,7.52A5.35,5.35,0,0,0,397.3,674.91Z"/><path class="cls-4" d="M451.47,662.75a7.22,7.22,0,1,0,.73,10.18A7.21,7.21,0,0,0,451.47,662.75Z"/><path class="cls-4" d="M334.77,537.5a4.64,4.64,0,1,0,.47,6.54A4.64,4.64,0,0,0,334.77,537.5Z"/><path class="cls-4" d="M239.9,569.36a6.51,6.51,0,1,0,.67,9.19A6.52,6.52,0,0,0,239.9,569.36Z"/><path class="cls-4" d="M449.33,665.21a4,4,0,1,0,.41,5.58A3.95,3.95,0,0,0,449.33,665.21Z"/><path class="cls-4" d="M450.17,664.26a5.22,5.22,0,1,0,.53,7.36A5.22,5.22,0,0,0,450.17,664.26Z"/><path class="cls-4" d="M395.46,677.05a2.51,2.51,0,1,0,.25,3.54A2.51,2.51,0,0,0,395.46,677.05Z"/><path class="cls-4" d="M238.67,570.79a4.63,4.63,0,1,0,.47,6.52A4.63,4.63,0,0,0,238.67,570.79Z"/><path class="cls-4" d="M450.05,664.38a5,5,0,1,0,.52,7.13A5,5,0,0,0,450.05,664.38Z"/><path class="cls-4" d="M446.22,353.49a1.83,1.83,0,1,0,.19,2.59A1.83,1.83,0,0,0,446.22,353.49Z"/><path class="cls-4" d="M520.15,348.1a7,7,0,1,0,.71,9.84A7,7,0,0,0,520.15,348.1Z"/><path class="cls-4" d="M335.5,536.65a5.76,5.76,0,1,0,.58,8.12A5.77,5.77,0,0,0,335.5,536.65Z"/><path class="cls-4" d="M448.24,351.17a4.91,4.91,0,1,0,.5,6.92A4.91,4.91,0,0,0,448.24,351.17Z"/><path class="cls-4" d="M446.36,353.32a2.05,2.05,0,1,0,.22,2.9A2,2,0,0,0,446.36,353.32Z"/><path class="cls-4" d="M449.56,665A4.3,4.3,0,1,0,450,671,4.31,4.31,0,0,0,449.56,665Z"/><path class="cls-4" d="M333,539.56a1.91,1.91,0,1,0,.19,2.69A1.89,1.89,0,0,0,333,539.56Z"/><path class="cls-4" d="M446.47,353.22a2.2,2.2,0,1,0,.23,3.1A2.2,2.2,0,0,0,446.47,353.22Z"/><path class="cls-4" d="M457.7,342.58a4,4,0,1,0,.42,5.69A4,4,0,0,0,457.7,342.58Z"/><path class="cls-4" d="M640.08,181a3.51,3.51,0,1,0,.36,4.94A3.51,3.51,0,0,0,640.08,181Z"/><path class="cls-4" d="M517.89,350.71a3.52,3.52,0,1,0,.36,5A3.53,3.53,0,0,0,517.89,350.71Z"/><path class="cls-4" d="M456,344.51a1.47,1.47,0,1,0,.15,2.08A1.46,1.46,0,0,0,456,344.51Z"/><path class="cls-4" d="M456.75,343.69a2.57,2.57,0,1,0,.26,3.62A2.57,2.57,0,0,0,456.75,343.69Z"/><path class="cls-4" d="M448.3,351.08a5,5,0,1,0,.51,7.08A5,5,0,0,0,448.3,351.08Z"/><path class="cls-4" d="M519.94,348.35a6.64,6.64,0,1,0,.68,9.37A6.66,6.66,0,0,0,519.94,348.35Z"/><path class="cls-4" d="M456.5,344a2.19,2.19,0,1,0,.22,3.08A2.19,2.19,0,0,0,456.5,344Z"/><path class="cls-4" d="M626.08,261.33a3.08,3.08,0,1,0,.31,4.35A3.09,3.09,0,0,0,626.08,261.33Z"/><path class="cls-4" d="M641.94,178.87a6.35,6.35,0,1,0,.65,8.95A6.35,6.35,0,0,0,641.94,178.87Z"/><path class="cls-4" d="M626,261.48a2.9,2.9,0,1,0,.29,4.09A2.89,2.89,0,0,0,626,261.48Z"/><path class="cls-4" d="M625.35,262.18a2,2,0,1,0,.19,2.77A2,2,0,0,0,625.35,262.18Z"/><path class="cls-4" d="M457.78,342.49a4.15,4.15,0,1,0,.42,5.85A4.15,4.15,0,0,0,457.78,342.49Z"/><path class="cls-4" d="M639.73,181.42a3,3,0,1,0-3.88,4.49,3,3,0,0,0,3.88-4.49Z"/><path class="cls-4" d="M626,261.46a2.93,2.93,0,1,0,.3,4.13A2.92,2.92,0,0,0,626,261.46Z"/><path class="cls-4" d="M783.13,212.36a2.95,2.95,0,1,0,.3,4.16A3,3,0,0,0,783.13,212.36Z"/><path class="cls-4" d="M785.07,210.11a5.92,5.92,0,1,0,.6,8.35A5.92,5.92,0,0,0,785.07,210.11Z"/><path class="cls-4" d="M783.68,211.73a3.79,3.79,0,1,0,.38,5.33A3.77,3.77,0,0,0,783.68,211.73Z"/><path class="cls-4" d="M626.1,261.3a3.12,3.12,0,1,0,.33,4.41A3.11,3.11,0,0,0,626.1,261.3Z"/><path class="cls-4" d="M783,212.57a2.67,2.67,0,1,0,.27,3.76A2.66,2.66,0,0,0,783,212.57Z"/><path class="cls-4" d="M782.57,213a2.08,2.08,0,1,0-2.73,3.14,2.08,2.08,0,0,0,2.73-3.14Z"/><path class="cls-4" d="M208.14,687.21a5.87,5.87,0,1,0,.61,8.27A5.86,5.86,0,0,0,208.14,687.21Z"/><path class="cls-4" d="M208.53,686.76a6.46,6.46,0,1,0,.66,9.11A6.46,6.46,0,0,0,208.53,686.76Z"/><path class="cls-4" d="M209.17,686a7.44,7.44,0,1,0,.76,10.49A7.44,7.44,0,0,0,209.17,686Z"/><path class="cls-4" d="M207.6,687.83a5,5,0,1,0,.52,7.11A5,5,0,0,0,207.6,687.83Z"/><path class="cls-4" d="M283.51,619.81a4.33,4.33,0,1,0,.44,6.11A4.32,4.32,0,0,0,283.51,619.81Z"/><path class="cls-4" d="M282.24,621.29a2.39,2.39,0,1,0,.25,3.38A2.39,2.39,0,0,0,282.24,621.29Z"/><path class="cls-4" d="M283.94,619.33a5,5,0,1,0,.51,7A5,5,0,0,0,283.94,619.33Z"/><path class="cls-4" d="M206.1,689.57a2.75,2.75,0,1,0,.28,3.87A2.74,2.74,0,0,0,206.1,689.57Z"/><path class="cls-4" d="M286.53,616.34a8.94,8.94,0,1,0,.91,12.61A8.94,8.94,0,0,0,286.53,616.34Z"/><path class="cls-4" d="M236.93,572.81a2,2,0,0,0-2.77.19,2,2,0,1,0,3,2.57A2,2,0,0,0,236.93,572.81Z"/><path class="cls-4" d="M243.94,434.32a5.29,5.29,0,1,0,.54,7.47A5.28,5.28,0,0,0,243.94,434.32Z"/><path class="cls-4" d="M237.88,571.7a3.43,3.43,0,1,0,.35,4.84A3.43,3.43,0,0,0,237.88,571.7Z"/><path class="cls-4" d="M239,570.39a5.15,5.15,0,1,0,.54,7.27A5.15,5.15,0,0,0,239,570.39Z"/><path class="cls-4" d="M284.13,619.11a5.27,5.27,0,1,0,.53,7.43A5.27,5.27,0,0,0,284.13,619.11Z"/><path class="cls-4" d="M237.56,572.06a2.95,2.95,0,1,0,.3,4.16A3,3,0,0,0,237.56,572.06Z"/><path class="cls-4" d="M335.69,536.42a6.06,6.06,0,1,0,.62,8.55A6.07,6.07,0,0,0,335.69,536.42Z"/><path class="cls-4" d="M194.15,317a4.08,4.08,0,1,0,.41,5.75A4.08,4.08,0,0,0,194.15,317Z"/><path class="cls-4" d="M242.78,435.68a3.5,3.5,0,1,0,.36,4.93A3.5,3.5,0,0,0,242.78,435.68Z"/><path class="cls-4" d="M335.56,536.58a5.85,5.85,0,1,0,.59,8.26A5.86,5.86,0,0,0,335.56,536.58Z"/><path class="cls-4" d="M333.19,539.33a2.22,2.22,0,1,0,.23,3.14A2.22,2.22,0,0,0,333.19,539.33Z"/><path class="cls-4" d="M238.86,570.57a4.92,4.92,0,1,0,.5,6.93A4.91,4.91,0,0,0,238.86,570.57Z"/><path class="cls-4" d="M243.55,434.78a4.68,4.68,0,1,0,.49,6.61A4.69,4.69,0,0,0,243.55,434.78Z"/><path class="cls-4" d="M336.52,535.47a7.32,7.32,0,1,0,.75,10.33A7.32,7.32,0,0,0,336.52,535.47Z"/><path class="cls-4" d="M518.31,350.23a4.16,4.16,0,1,0,.42,5.87A4.16,4.16,0,0,0,518.31,350.23Z"/><path class="cls-4" d="M193.22,318.08a2.65,2.65,0,1,0,.26,3.74A2.65,2.65,0,0,0,193.22,318.08Z"/><path class="cls-4" d="M518.13,350.45a3.87,3.87,0,1,0,.39,5.46A3.87,3.87,0,0,0,518.13,350.45Z"/><path class="cls-4" d="M519.38,349a5.8,5.8,0,1,0,.59,8.18A5.8,5.8,0,0,0,519.38,349Z"/><path class="cls-4" d="M334,538.41a3.43,3.43,0,1,0,.36,4.84A3.43,3.43,0,0,0,334,538.41Z"/><path class="cls-4" d="M193.35,317.92a2.85,2.85,0,1,0,.29,4A2.86,2.86,0,0,0,193.35,317.92Z"/><path class="cls-4" d="M517.92,350.68a3.56,3.56,0,1,0,.37,5A3.55,3.55,0,0,0,517.92,350.68Z"/><path class="cls-4" d="M640.7,180.3a4.46,4.46,0,1,0,.46,6.29A4.45,4.45,0,0,0,640.7,180.3Z"/><path class="cls-4" d="M369.5,153.83a4.37,4.37,0,0,1-.55-.59l7.89-.53a5.12,5.12,0,0,1-.45.62A4.88,4.88,0,0,1,369.5,153.83Z"/><path class="cls-4" d="M639.72,181.43a3,3,0,1,0,.31,4.19A3,3,0,0,0,639.72,181.43Z"/><path class="cls-4" d="M640.77,180.23a4.56,4.56,0,1,0,.46,6.43A4.57,4.57,0,0,0,640.77,180.23Z"/><path class="cls-4" d="M518.7,349.77a4.76,4.76,0,1,0,.49,6.73A4.77,4.77,0,0,0,518.7,349.77Z"/><path class="cls-4" d="M369.19,154.18a5.38,5.38,0,0,1-.82-.9l9-.61a5.94,5.94,0,0,1-.66,1A5.35,5.35,0,0,1,369.19,154.18Z"/><path class="cls-4" d="M639.78,181.36a3.06,3.06,0,1,0,.32,4.32A3.06,3.06,0,0,0,639.78,181.36Z"/><path class="cls-4" d="M640.05,181.05a3.46,3.46,0,1,0,.36,4.89A3.47,3.47,0,0,0,640.05,181.05Z"/><path class="cls-4" d="M242.72,435.75a3.41,3.41,0,1,0,.34,4.8A3.42,3.42,0,0,0,242.72,435.75Z"/><path class="cls-4" d="M269.15,238.51a2.86,2.86,0,1,0,.29,4A2.86,2.86,0,0,0,269.15,238.51Z"/><path class="cls-4" d="M243.63,434.7a4.79,4.79,0,1,0,.49,6.77A4.79,4.79,0,0,0,243.63,434.7Z"/><path class="cls-4" d="M243.41,435a4.46,4.46,0,1,0,.45,6.29A4.47,4.47,0,0,0,243.41,435Z"/><path class="cls-4" d="M243.34,435a4.35,4.35,0,1,0,.45,6.14A4.34,4.34,0,0,0,243.34,435Z"/><path class="cls-4" d="M194.26,316.88a4.24,4.24,0,1,0,.43,6A4.24,4.24,0,0,0,194.26,316.88Z"/><path class="cls-4" d="M310.38,299a2.52,2.52,0,1,0,.26,3.56A2.52,2.52,0,0,0,310.38,299Z"/><path class="cls-4" d="M271.93,235.29a7.11,7.11,0,1,0,.73,10A7.12,7.12,0,0,0,271.93,235.29Z"/><path class="cls-4" d="M193.93,317.24a3.76,3.76,0,1,0,.39,5.31A3.75,3.75,0,0,0,193.93,317.24Z"/><path class="cls-4" d="M194.55,316.53a4.69,4.69,0,1,0,.48,6.61A4.7,4.7,0,0,0,194.55,316.53Z"/><path class="cls-4" d="M241.6,437a1.71,1.71,0,1,0,.18,2.41A1.71,1.71,0,0,0,241.6,437Z"/><path class="cls-4" d="M270.79,236.6a5.38,5.38,0,1,0,.56,7.59A5.39,5.39,0,0,0,270.79,236.6Z"/><path class="cls-4" d="M193.63,317.6a3.3,3.3,0,0,0-4.64.34,3.28,3.28,0,1,0,4.64-.34Z"/><path class="cls-4" d="M379.07,200.34a3.33,3.33,0,1,0,.34,4.68A3.32,3.32,0,0,0,379.07,200.34Z"/><path class="cls-4" d="M311.64,297.58a4.44,4.44,0,1,0,.46,6.27A4.45,4.45,0,0,0,311.64,297.58Z"/><path class="cls-4" d="M369.57,153.76a5,5,0,0,1-.5-.53l7.64-.52a5.12,5.12,0,0,1-.39.56A4.78,4.78,0,0,1,369.57,153.76Z"/><path class="cls-4" d="M196,314.85a6.92,6.92,0,1,0,.7,9.75A6.93,6.93,0,0,0,196,314.85Z"/><path class="cls-4" d="M311.18,298.11a3.75,3.75,0,1,0,.38,5.28A3.75,3.75,0,0,0,311.18,298.11Z"/><path class="cls-4" d="M378.67,200.81a2.7,2.7,0,1,0,.27,3.81A2.72,2.72,0,0,0,378.67,200.81Z"/><path class="cls-4" d="M369.75,153.54c-.11-.1-.21-.22-.31-.33l6.9-.47a2.36,2.36,0,0,1-.24.34A4.5,4.5,0,0,1,369.75,153.54Z"/><path class="cls-4" d="M378.81,200.64a2.92,2.92,0,1,0,.31,4.12A2.92,2.92,0,0,0,378.81,200.64Z"/><path class="cls-4" d="M268.66,239.07a2.12,2.12,0,1,0,.22,3A2.12,2.12,0,0,0,268.66,239.07Z"/><path class="cls-4" d="M269.68,237.88a3.68,3.68,0,1,0,.38,5.19A3.68,3.68,0,0,0,269.68,237.88Z"/><path class="cls-4" d="M269.75,237.82a3.78,3.78,0,1,0,.39,5.33A3.76,3.76,0,0,0,269.75,237.82Z"/><path class="cls-4" d="M270.93,236.45a5.58,5.58,0,1,0,.57,7.87A5.59,5.59,0,0,0,270.93,236.45Z"/><path class="cls-4" d="M314.76,294a9.22,9.22,0,1,0,.94,13A9.22,9.22,0,0,0,314.76,294Z"/><path class="cls-4" d="M310.81,298.54a3.18,3.18,0,1,0,.33,4.48A3.18,3.18,0,0,0,310.81,298.54Z"/><path class="cls-4" d="M312,297.22a4.92,4.92,0,1,0,.51,6.95A4.91,4.91,0,0,0,312,297.22Z"/><path class="cls-4" d="M270.25,237.24a4.54,4.54,0,1,0,.47,6.41A4.54,4.54,0,0,0,270.25,237.24Z"/><path class="cls-4" d="M312,297.22a4.92,4.92,0,1,0,.51,6.95A4.92,4.92,0,0,0,312,297.22Z"/><path class="cls-4" d="M379.59,199.74a4.11,4.11,0,1,0,.42,5.8A4.12,4.12,0,0,0,379.59,199.74Z"/><path class="cls-4" d="M382.09,196.83A7.95,7.95,0,1,0,382.9,208,7.95,7.95,0,0,0,382.09,196.83Z"/><path class="cls-4" d="M379.82,199.48a4.46,4.46,0,1,0,.46,6.29A4.46,4.46,0,0,0,379.82,199.48Z"/><path class="cls-4" d="M312.57,296.5a5.88,5.88,0,1,0,.61,8.29A5.87,5.87,0,0,0,312.57,296.5Z"/><path class="cls-4" d="M379.38,200a3.79,3.79,0,1,0,.39,5.34A3.8,3.8,0,0,0,379.38,200Z"/><path class="cls-4" d="M379,200.47a3.15,3.15,0,1,0,.31,4.44A3.16,3.16,0,0,0,379,200.47Z"/></g></svg>