<svg id="BACKGROUND" xmlns="http://www.w3.org/2000/svg" xmlns:xlink="http://www.w3.org/1999/xlink" viewBox="0 0 1373.75 936.18"><defs><style>.cls-1{fill:none;}.cls-2,.cls-4,.cls-6{stroke:#1c1e40;stroke-miterlimit:10;stroke-width:0.5px;}.cls-2{fill:url(#Gradiente_sem_nome_18);}.cls-3{clip-path:url(#clip-path);}.cls-4{fill:#5ec4e5;}.cls-5{mask:url(#mask);}.cls-6{fill:#1c1e40;}.cls-7{filter:url(#luminosity-invert-noclip);}</style><linearGradient id="Gradiente_sem_nome_18" x1="153.56" y1="-77.99" x2="1189.64" y2="958.08" gradientUnits="userSpaceOnUse"><stop offset="0" stop-color="#1c1e40"/><stop offset="0.24" stop-color="#1c2044"/><stop offset="0.46" stop-color="#1c244f"/><stop offset="0.68" stop-color="#1c2d62"/><stop offset="0.89" stop-color="#1b387d"/><stop offset="0.99" stop-color="#1b3f8d"/></linearGradient><clipPath id="clip-path"><path class="cls-1" d="M32.79,831.93s169.45-56.88,344.56-51.06,285.72,85.33,567.95,83.5c303.22-2,390-79.64,390-79.64l-1-744.34H32.79Z"/></clipPath><filter id="luminosity-invert-noclip" x="-0.48" y="-24.96" width="1441.51" height="995.55" filterUnits="userSpaceOnUse" color-interpolation-filters="sRGB"><feColorMatrix values="-1 0 0 0 1 0 -1 0 0 1 0 0 -1 0 1 0 0 0 1 0" result="invert"/><feFlood flood-color="#fff" result="bg"/><feBlend in="invert" in2="bg"/></filter><mask id="mask" x="-0.48" y="-24.96" width="1441.51" height="995.55" maskUnits="userSpaceOnUse"><g class="cls-7"><image width="5231" height="3487" transform="translate(-0.48 -1.43) scale(0.28)" xlink:href="../../Downloads/brooke-cagle-g1Kr4Ozfoac-unsplash (1).jpg"/></g></mask></defs><title>imagem 1</title><path class="cls-2" d="M32.79,861.23s169.45-58.81,344.56-52.79,285.72,88.24,567.95,86.35c303.22-2,390-82.36,390-82.36l-1-769.65H32.79Z"/><g class="cls-3"><rect class="cls-4" width="1436.98" height="970.34"/><g class="cls-5"><rect class="cls-6" y="-24.71" width="1440.78" height="995.05"/></g></g></svg>