<svg xmlns="http://www.w3.org/2000/svg" viewBox="0 0 1053.1 314.34"><defs><style>.cls-1{fill:#fff;}</style></defs><title>logo</title><g id="LOGO"><path class="cls-1" d="M302.24,216.62q.76,1.95,1.5,3.93c.49-1.37,1-2.68,1.54-3.93s1.15-2.5,1.83-3.77l35.56-64.59a4.17,4.17,0,0,1,2-2,9.19,9.19,0,0,1,2.93-.37h10.48V250.9H345.6V173.7c0-1,0-2.13.08-3.3s.12-2.37.21-3.59l-36,65.69a5.64,5.64,0,0,1-5.13,3.29h-2.06a5.65,5.65,0,0,1-5.13-3.29l-36.8-65.91c.15,1.27.26,2.52.33,3.74s.11,2.34.11,3.37v77.2H248.76V145.84h10.48a9.19,9.19,0,0,1,2.93.37,4.17,4.17,0,0,1,2,2l36.29,64.66A26.37,26.37,0,0,1,302.24,216.62Z"/><path class="cls-1" d="M470.08,250.9h-11a4.69,4.69,0,0,1-3.08-1,5.74,5.74,0,0,1-1.76-2.42l-9.83-25.36H397.28l-9.82,25.36a5.7,5.7,0,0,1-1.76,2.35,4.66,4.66,0,0,1-3.08,1h-11l42-105.06h14.44Zm-68.84-39h39.22L424,169.15a77.39,77.39,0,0,1-3.15-9.89c-.54,2-1.07,3.85-1.58,5.53s-1,3.17-1.5,4.44Z"/><path class="cls-1" d="M545.23,145.84v11.95h-34V250.9H497.06V157.79H463V145.84Z"/><path class="cls-1" d="M627,229.2a3,3,0,0,1,2.13,1l5.57,6.08a44.84,44.84,0,0,1-15.65,11.66q-9.21,4.19-22.18,4.18a52.28,52.28,0,0,1-20.6-3.92,45.16,45.16,0,0,1-15.76-11,49.55,49.55,0,0,1-10.12-17,63.29,63.29,0,0,1-3.59-21.77,59.54,59.54,0,0,1,3.85-21.78,49.78,49.78,0,0,1,10.81-17,48.4,48.4,0,0,1,16.68-11,56.82,56.82,0,0,1,21.44-3.92q11.58,0,20,3.59A50.78,50.78,0,0,1,634.52,158l-4.62,6.53a5,5,0,0,1-1.17,1.21,3.23,3.23,0,0,1-1.91.47,3.76,3.76,0,0,1-2-.69c-.71-.47-1.55-1-2.52-1.73s-2.13-1.41-3.45-2.2a30.84,30.84,0,0,0-4.69-2.2,39.78,39.78,0,0,0-6.31-1.72,44.26,44.26,0,0,0-8.28-.69,40,40,0,0,0-15.43,2.89,34.48,34.48,0,0,0-12.06,8.25,37.42,37.42,0,0,0-7.88,13.05,49.54,49.54,0,0,0-2.83,17.23,50.46,50.46,0,0,0,2.83,17.52,38.62,38.62,0,0,0,7.69,13,32.52,32.52,0,0,0,11.55,8.1,36.88,36.88,0,0,0,14.37,2.79,59.24,59.24,0,0,0,8.43-.55,34.45,34.45,0,0,0,6.93-1.73,29.44,29.44,0,0,0,5.94-3,46.15,46.15,0,0,0,5.53-4.28A3.7,3.7,0,0,1,627,229.2Z"/><path class="cls-1" d="M738.62,250.9h-14.3V203.1H667.73v47.8h-14.3V145.84h14.3v46.85h56.59V145.84h14.3Z"/><path class="cls-1" d="M781.14,250.9H766.92V145.84h14.22Z"/><path class="cls-1" d="M819.44,146.32a7.27,7.27,0,0,1,2.09,1.94l60.85,79.18c-.15-1.27-.25-2.51-.29-3.7s-.08-2.36-.08-3.49V145.84h12.47V250.9h-7.19a6.13,6.13,0,0,1-2.82-.59,7.16,7.16,0,0,1-2.24-2l-60.77-79.1c.09,1.22.17,2.42.22,3.59s.07,2.25.07,3.23V250.9H809.29V145.84h7.33A6.33,6.33,0,0,1,819.44,146.32Z"/><path class="cls-1" d="M967,240.56a69.46,69.46,0,0,0,7.81-.4A49.72,49.72,0,0,0,981.5,239a45.28,45.28,0,0,0,5.93-1.95,60.62,60.62,0,0,0,5.58-2.6V211.24H976.73a3.11,3.11,0,0,1-2.24-.81,2.65,2.65,0,0,1-.84-2v-8.06h32.26v40.32a59.1,59.1,0,0,1-8.25,5,55.66,55.66,0,0,1-9.16,3.56,66.13,66.13,0,0,1-10.45,2.12,96.69,96.69,0,0,1-12.1.7,54.64,54.64,0,0,1-21-3.92,48.34,48.34,0,0,1-16.43-11,49.79,49.79,0,0,1-10.73-17A59.52,59.52,0,0,1,914,198.41a61.16,61.16,0,0,1,3.77-21.92,47.15,47.15,0,0,1,27.71-27.93,60.68,60.68,0,0,1,22.25-3.89,68.85,68.85,0,0,1,11.59.92,54.2,54.2,0,0,1,9.93,2.64,46,46,0,0,1,8.47,4.17,51.66,51.66,0,0,1,7.25,5.54l-4,6.45a3.7,3.7,0,0,1-3.22,2,5.2,5.2,0,0,1-2.57-.81q-1.83-1-4.1-2.49a34.67,34.67,0,0,0-5.54-2.82,44.27,44.27,0,0,0-7.7-2.31,50.31,50.31,0,0,0-10.52-.95,42.6,42.6,0,0,0-16,2.89A33.84,33.84,0,0,0,939,168.17a36.55,36.55,0,0,0-7.78,13.05,56.54,56.54,0,0,0,.12,35,37.54,37.54,0,0,0,7.95,13.24,34.47,34.47,0,0,0,12.17,8.28A40.83,40.83,0,0,0,967,240.56Z"/><rect class="cls-1" x="766.45" y="262.04" width="236.95" height="5.73"/><path class="cls-1" d="M155.23,265.49a3.11,3.11,0,0,1-1.69-.49L62,205.76a3.12,3.12,0,0,1-.66-4.66l38.9-44.57L52.8,59.11a3.11,3.11,0,0,1,4.38-4l86.71,51.43L190.58,53l4.69,4.09-45.94,52.63,66.72,39.58-3.17,5.35L145.17,114.5l-37.54,43L158,261a3.12,3.12,0,0,1-.73,3.69A3.08,3.08,0,0,1,155.23,265.49Zm-86.85-63,79.16,51.22L103.19,162.6ZM62.94,65.72l41.73,85.72,35.06-40.17Z"/><circle class="cls-1" cx="211.77" cy="151.99" r="8.08"/><circle class="cls-1" cx="192.92" cy="55.05" r="8.08"/><circle class="cls-1" cx="144.45" cy="111.6" r="8.08"/><circle class="cls-1" cx="58.29" cy="60.44" r="8.08"/><circle class="cls-1" cx="104.07" cy="157.37" r="8.08"/><circle class="cls-1" cx="152.53" cy="259.69" r="8.08"/><circle class="cls-1" cx="63.68" cy="203.15" r="8.08"/></g></svg>